<svg width="17" height="22" viewBox="0 0 17 22" fill="none" xmlns="http://www.w3.org/2000/svg">
<path d="M1.47794 5.86607C2.5545 3.022 5.30049 1 8.52039 1C12.677 1 16.0465 4.37056 16.0465 8.52679C16.0465 11.8636 11.1949 18.2478 9.28213 20.6348C9.19053 20.7488 9.07453 20.8408 8.94267 20.904C8.8108 20.9672 8.66644 21 8.52022 21C8.37399 21 8.22963 20.9672 8.09777 20.904C7.96591 20.8408 7.8499 20.7488 7.7583 20.6348C5.88428 18.2964 1.18976 12.1215 1 8.73374" stroke="#9D795A" stroke-miterlimit="10" stroke-linecap="round"/>
<path d="M5.06934 8.52437C5.07538 7.61523 5.44096 6.74544 6.08623 6.10498" stroke="#9D795A" stroke-miterlimit="10" stroke-linecap="round"/>
<path d="M7.25746 5.33782C7.88387 5.09165 8.56859 5.03397 9.22736 5.17187C9.88613 5.30976 10.4902 5.63722 10.9653 6.11396C11.4404 6.5907 11.7658 7.19592 11.9014 7.85517C12.037 8.51441 11.977 9.19892 11.7286 9.82448C11.4803 10.45 11.0545 10.9894 10.5037 11.3761C9.95282 11.7628 9.30093 11.9801 8.62821 12.0012C7.95549 12.0223 7.29128 11.8462 6.7173 11.4948C6.14332 11.1433 5.6846 10.6317 5.39758 10.0229" stroke="#9D795A" stroke-miterlimit="10" stroke-linecap="round"/>
</svg>
