<svg width="17" height="17" viewBox="0 0 17 17" fill="none" xmlns="http://www.w3.org/2000/svg">
<path d="M16.6382 2.80355C16.5702 2.73496 16.5016 2.66638 16.365 2.66638H3.37055L3.0288 0.88372C3.0288 0.746547 2.82362 0.609375 2.68645 0.609375H0.634727C0.429555 0.609375 0.292969 0.746547 0.292969 0.952306C0.292969 1.15748 0.429555 1.29524 0.634727 1.29524H2.41328L4.05466 9.65924C4.25983 10.756 5.28569 11.5791 6.37955 11.5791H14.2447C14.4499 11.5791 14.5865 11.4419 14.5865 11.2361C14.5865 11.0304 14.4499 10.8932 14.2447 10.8932H6.44814C5.90121 10.8932 5.35369 10.6189 5.08052 10.1388L15.0654 8.7682C15.202 8.7682 15.3391 8.63162 15.3391 8.49444L16.7068 3.00872C16.7068 3.00872 16.7068 2.87155 16.6382 2.80355ZM14.7236 8.15093L4.73818 9.45348L3.50714 3.28306H15.8861L14.7236 8.15093ZM6.10638 12.2643C5.88093 12.2624 5.65736 12.3054 5.44874 12.3909C5.24012 12.4764 5.05065 12.6026 4.89142 12.7623C4.73219 12.9219 4.6064 13.1116 4.5214 13.3205C4.4364 13.5293 4.39391 13.753 4.39642 13.9784C4.39391 14.2039 4.4364 14.4275 4.5214 14.6364C4.6064 14.8452 4.73219 15.0349 4.89142 15.1946C5.05065 15.3542 5.24012 15.4804 5.44874 15.5659C5.65736 15.6514 5.88093 15.6944 6.10638 15.6925C6.33178 15.6944 6.55529 15.6513 6.76384 15.5657C6.97239 15.4802 7.16179 15.354 7.32096 15.1943C7.48013 15.0347 7.60587 14.845 7.69083 14.6362C7.77579 14.4274 7.81826 14.2038 7.81576 13.9784C7.81826 13.753 7.77579 13.5294 7.69083 13.3206C7.60587 13.1118 7.48013 12.9221 7.32096 12.7625C7.16179 12.6029 6.97239 12.4766 6.76384 12.3911C6.55529 12.3055 6.33178 12.2625 6.10638 12.2643ZM6.10638 15.0066C5.55887 15.0066 5.08052 14.5271 5.08052 13.9784C5.08052 13.4297 5.55887 12.9502 6.10638 12.9502C6.65331 12.9502 7.13224 13.4297 7.13224 13.9784C7.13224 14.5271 6.65331 15.0066 6.10638 15.0066ZM12.9451 12.2643C12.7197 12.2625 12.4962 12.3055 12.2876 12.3911C12.0791 12.4766 11.8897 12.6029 11.7305 12.7625C11.5713 12.9221 11.4456 13.1118 11.3606 13.3206C11.2757 13.5294 11.2332 13.753 11.2357 13.9784C11.2332 14.2038 11.2757 14.4274 11.3606 14.6362C11.4456 14.845 11.5713 15.0347 11.7305 15.1943C11.8897 15.354 12.0791 15.4802 12.2876 15.5657C12.4962 15.6513 12.7197 15.6944 12.9451 15.6925C13.1705 15.6944 13.3941 15.6514 13.6027 15.5659C13.8113 15.4804 14.0008 15.3542 14.16 15.1946C14.3193 15.0349 14.4451 14.8452 14.5301 14.6364C14.6151 14.4275 14.6575 14.2039 14.655 13.9784C14.6575 13.753 14.6151 13.5293 14.5301 13.3205C14.4451 13.1116 14.3193 12.9219 14.16 12.7623C14.0008 12.6026 13.8113 12.4764 13.6027 12.3909C13.3941 12.3054 13.1705 12.2624 12.9451 12.2643ZM12.9451 15.0066C12.3981 15.0066 11.9192 14.5271 11.9192 13.9784C11.9192 13.4297 12.3981 12.9502 12.9451 12.9502C13.4926 12.9502 13.9709 13.4297 13.9709 13.9784C13.9709 14.5271 13.4926 15.0066 12.9451 15.0066Z" fill="white"/>
</svg>
