<svg width="28" height="28" viewBox="0 0 28 28" fill="none" xmlns="http://www.w3.org/2000/svg">
<path d="M27.4039 5.11393C27.2919 5.00097 27.179 4.888 26.954 4.888H5.55139L4.98849 1.95186C4.98849 1.72593 4.65056 1.5 4.42463 1.5H1.04532C0.707387 1.5 0.482422 1.72593 0.482422 2.06483C0.482422 2.40276 0.707387 2.62966 1.04532 2.62966H3.9747L6.67815 16.4057C7.01608 18.2121 8.70573 19.5677 10.5074 19.5677H23.4617C23.7997 19.5677 24.0246 19.3418 24.0246 19.0029C24.0246 18.664 23.7997 18.4381 23.4617 18.4381H10.6204C9.71953 18.4381 8.81773 17.9862 8.3678 17.1954L24.8135 14.9381C25.0384 14.9381 25.2644 14.7131 25.2644 14.4872L27.5169 5.45186C27.5169 5.45186 27.5169 5.22593 27.4039 5.11393ZM24.2506 13.9214L7.80394 16.0668L5.77635 5.90372H26.1652L24.2506 13.9214ZM10.0575 20.6964C9.68613 20.6932 9.31789 20.764 8.97428 20.9049C8.63067 21.0457 8.31861 21.2536 8.05634 21.5165C7.79408 21.7794 7.58689 22.092 7.4469 22.4359C7.3069 22.7799 7.23692 23.1483 7.24104 23.5196C7.23692 23.8909 7.3069 24.2593 7.4469 24.6033C7.58689 24.9472 7.79408 25.2598 8.05634 25.5227C8.31861 25.7855 8.63067 25.9935 8.97428 26.1343C9.31789 26.2751 9.68613 26.346 10.0575 26.3428C10.4287 26.3459 10.7968 26.2749 11.1403 26.134C11.4838 25.9931 11.7958 25.7852 12.0579 25.5223C12.3201 25.2594 12.5272 24.9469 12.6671 24.603C12.8071 24.2592 12.877 23.8908 12.8729 23.5196C12.877 23.1483 12.8071 22.78 12.6671 22.4361C12.5272 22.0923 12.3201 21.7797 12.0579 21.5169C11.7958 21.254 11.4838 21.046 11.1403 20.9051C10.7968 20.7643 10.4287 20.6933 10.0575 20.6964ZM10.0575 25.2131C9.15566 25.2131 8.3678 24.4233 8.3678 23.5196C8.3678 22.6159 9.15566 21.8261 10.0575 21.8261C10.9583 21.8261 11.7471 22.6159 11.7471 23.5196C11.7471 24.4233 10.9583 25.2131 10.0575 25.2131ZM21.3212 20.6964C20.9499 20.6933 20.5818 20.7643 20.2383 20.9051C19.8948 21.046 19.5829 21.254 19.3207 21.5169C19.0585 21.7797 18.8514 22.0923 18.7115 22.4361C18.5716 22.78 18.5016 23.1483 18.5057 23.5196C18.5016 23.8908 18.5716 24.2592 18.7115 24.603C18.8514 24.9469 19.0585 25.2594 19.3207 25.5223C19.5829 25.7852 19.8948 25.9931 20.2383 26.134C20.5818 26.2749 20.9499 26.3459 21.3212 26.3428C21.6925 26.346 22.0607 26.2751 22.4044 26.1343C22.748 25.9935 23.06 25.7855 23.3223 25.5227C23.5846 25.2598 23.7917 24.9472 23.9317 24.6033C24.0717 24.2593 24.1417 23.8909 24.1376 23.5196C24.1417 23.1483 24.0717 22.7799 23.9317 22.4359C23.7917 22.092 23.5846 21.7794 23.3223 21.5165C23.06 21.2536 22.748 21.0457 22.4044 20.9049C22.0607 20.764 21.6925 20.6932 21.3212 20.6964ZM21.3212 25.2131C20.4204 25.2131 19.6315 24.4233 19.6315 23.5196C19.6315 22.6159 20.4204 21.8261 21.3212 21.8261C22.223 21.8261 23.0108 22.6159 23.0108 23.5196C23.0108 24.4233 22.223 25.2131 21.3212 25.2131Z" fill="#393F45"/>
</svg>
