<svg width="24" height="24" viewBox="0 0 24 24" fill="none" xmlns="http://www.w3.org/2000/svg">
<path fill-rule="evenodd" clip-rule="evenodd" d="M15.7783 2.38779C14.9821 2.38779 14.2185 2.70409 13.6554 3.26712L4.46544 12.4571C3.52714 13.3954 3 14.668 3 15.995C3 17.322 3.52714 18.5946 4.46544 19.5329C5.40375 20.4712 6.67637 20.9983 8.00334 20.9983C9.3303 20.9983 10.6029 20.4712 11.5412 19.5329L20.7312 10.3429C21.1218 9.95238 21.7549 9.95238 22.1454 10.3429C22.536 10.7334 22.536 11.3666 22.1454 11.7571L12.9554 20.9471C11.6421 22.2605 9.86074 22.9983 8.00334 22.9983C6.14594 22.9983 4.36461 22.2605 3.05123 20.9471C1.73785 19.6337 1 17.8524 1 15.995C1 14.1376 1.73785 12.3563 3.05123 11.0429L12.2412 1.8529C13.1793 0.914805 14.4517 0.387787 15.7783 0.387787C17.105 0.387787 18.3773 0.914805 19.3154 1.8529C20.2535 2.791 20.7806 4.06334 20.7806 5.39001C20.7806 6.71668 20.2535 7.98902 19.3154 8.92712L10.1154 18.1171C9.55263 18.6799 8.78928 18.9961 7.99334 18.9961C7.19739 18.9961 6.43405 18.6799 5.87123 18.1171C5.30841 17.5543 4.99222 16.791 4.99222 15.995C4.99222 15.1991 5.30841 14.4357 5.87123 13.8729L14.3616 5.39249C14.7524 5.00219 15.3856 5.00257 15.7759 5.39332C16.1662 5.78408 16.1658 6.41724 15.775 6.80753L7.28544 15.2871C7.09796 15.4748 6.99222 15.7297 6.99222 15.995C6.99222 16.2605 7.0977 16.5152 7.28544 16.7029C7.47319 16.8906 7.72783 16.9961 7.99334 16.9961C8.25885 16.9961 8.51348 16.8906 8.70123 16.7029L17.9012 7.51291C18.464 6.94992 18.7806 6.18607 18.7806 5.39001C18.7806 4.59377 18.4643 3.83014 17.9012 3.26712C17.3382 2.70409 16.5746 2.38779 15.7783 2.38779Z" fill="white"/>
</svg>
