<svg width="31" height="31" viewBox="0 0 31 31" fill="none" xmlns="http://www.w3.org/2000/svg">
<g clip-path="url(#clip0_9_110)">
<path d="M19.4998 23.6969H16.0873V18.73C17.0704 18.4293 17.8239 17.4954 17.8239 16.391C17.8239 15.0441 16.7252 13.95 15.3794 13.95C14.0337 13.95 12.9388 15.0441 12.9388 16.391C12.9388 17.4953 13.6997 18.4292 14.6828 18.73V23.6969H11.2523C10.8669 23.6969 10.5546 23.9786 10.5546 24.364C10.5546 24.7493 10.8669 25.0311 11.2523 25.0311H19.4998C19.8852 25.0311 20.1975 24.7493 20.1975 24.364C20.1975 23.9786 19.8852 23.6969 19.4998 23.6969ZM14.3302 16.3911C14.3302 15.8136 14.7999 15.344 15.3761 15.344C15.9522 15.344 16.4219 15.8148 16.4219 16.3911C16.4219 16.9685 15.9522 17.4382 15.3761 17.4382C14.7999 17.4382 14.3302 16.9673 14.3302 16.3911Z" fill="#939393"/>
<path d="M18.7911 26.576H11.9611C11.5757 26.576 11.2634 26.8922 11.2634 27.2776C11.2634 27.663 11.5757 27.9804 11.9611 27.9804H18.7911C19.1765 27.9804 19.4888 27.663 19.4888 27.2776C19.4888 26.8935 19.1765 26.576 18.7911 26.576Z" fill="#939393"/>
<path d="M18.4094 29.5955H12.3427C11.9574 29.5955 11.6451 29.9124 11.6451 30.2977C11.6451 30.6831 11.9574 31 12.3427 31H18.4094C18.7948 31 19.1071 30.6831 19.1071 30.2977C19.1071 29.9124 18.7948 29.5955 18.4094 29.5955Z" fill="#939393"/>
<path d="M15.376 6.35919C10.6525 6.35919 6.81 10.2017 6.81 14.924C6.81 18.4096 8.90536 21.4096 11.9003 22.7453C12.9474 23.2398 13.6921 22.0588 12.7194 21.5793C10.0776 20.5211 8.20405 17.9388 8.20405 14.924C8.20405 10.9712 11.4208 7.75317 15.3749 7.75317C19.3277 7.75317 22.5444 10.9712 22.5444 14.924C22.5444 17.9289 20.6832 20.505 18.0551 21.5694C17.1059 21.9498 17.578 23.293 18.8593 22.7403C21.848 21.4021 23.9384 18.4059 23.9384 14.924C23.9409 10.2017 20.0984 6.35919 15.376 6.35919Z" fill="#939393"/>
<path d="M15.3149 4.99616C15.7251 4.99616 16.0873 4.66408 16.0873 4.25391V0.743503C16.0873 0.333335 15.7263 6.10352e-05 15.3149 6.10352e-05C14.9047 6.10352e-05 14.5424 0.333406 14.5424 0.743503V4.25265C14.5424 4.66281 14.9035 4.99616 15.3149 4.99616Z" fill="#939393"/>
<path d="M4.5784 14.568H1.068C0.657829 14.568 0.324554 14.8952 0.324554 15.3053C0.324554 15.7155 0.657899 16.0427 1.068 16.0427H4.5784C4.98976 16.0427 5.32185 15.7167 5.32185 15.3053C5.32185 14.8952 4.9885 14.568 4.5784 14.568Z" fill="#939393"/>
<path d="M7.10119 7.77547C7.39114 8.06541 7.86198 8.06541 8.152 7.77547C8.44321 7.48552 8.44321 7.01468 8.152 6.72466L5.66999 4.24273C5.38005 3.95278 4.90921 3.95278 4.61919 4.24273C4.32917 4.53268 4.32924 5.00352 4.61919 5.29353L7.10119 7.77547Z" fill="#939393"/>
<path d="M29.932 14.568H26.4216C26.0103 14.568 25.6782 14.8952 25.6782 15.3053C25.6782 15.7167 26.0103 16.0427 26.4216 16.0427H29.932C30.3422 16.0427 30.6755 15.7155 30.6755 15.3053C30.6755 14.8952 30.3422 14.568 29.932 14.568Z" fill="#939393"/>
<path d="M23.8975 7.77547L26.3794 5.29353C26.6694 5.00359 26.6694 4.53268 26.3794 4.24273C26.0882 3.95278 25.6186 3.95278 25.3286 4.24273L22.8468 6.72466C22.5568 7.01461 22.5568 7.48545 22.8468 7.77547C23.1367 8.06541 23.6075 8.06541 23.8975 7.77547Z" fill="#939393"/>
</g>
<defs>
<clipPath id="clip0_9_110">
<rect width="31" height="31" fill="white"/>
</clipPath>
</defs>
</svg>
