<svg width="25" height="31" viewBox="0 0 25 31" fill="none" xmlns="http://www.w3.org/2000/svg">
<path d="M24.6093 13.0781C24.6119 12.3213 24.3335 11.5904 23.8279 11.0271C23.4826 10.6396 23.2918 10.1387 23.2918 9.6197C23.2926 9.47364 23.3074 9.32799 23.3358 9.18473C23.3784 8.98041 23.4009 8.77244 23.4033 8.56376C23.4027 7.91484 23.1974 7.28265 22.8166 6.75724C22.4357 6.23184 21.8988 5.84003 21.2822 5.63765C20.9681 5.53659 20.6826 5.36219 20.4493 5.12888C20.216 4.89556 20.0416 4.61003 19.9405 4.29593C19.829 3.95413 19.6577 3.63479 19.4348 3.35271C19.1456 2.98734 18.7779 2.69175 18.3589 2.48786C17.9398 2.28396 17.4803 2.17698 17.0143 2.17485C16.8042 2.17725 16.5948 2.19996 16.389 2.24266C16.066 2.30853 15.7321 2.2985 15.4136 2.21337C15.0952 2.12824 14.8008 1.97033 14.5537 1.75209C13.9932 1.25173 13.2692 0.9732 12.5179 0.968803C11.7665 0.964406 11.0393 1.23444 10.473 1.72821C10.4545 1.74066 10.4368 1.75425 10.42 1.7689C10.1766 1.98581 9.88523 2.14181 9.56976 2.22405C9.25429 2.30628 8.9238 2.3124 8.6055 2.24189C8.40151 2.19965 8.19391 2.1772 7.9856 2.17485C7.51994 2.17696 7.06073 2.28382 6.64198 2.4875C6.22323 2.69118 5.85567 2.98647 5.56653 3.3515C5.3431 3.63388 5.17157 3.95368 5.05993 4.29603C4.95863 4.6105 4.78385 4.89631 4.55007 5.12976C4.3163 5.36322 4.03025 5.53761 3.71564 5.63847C3.09957 5.84109 2.56312 6.23291 2.18267 6.75813C1.80222 7.28336 1.59716 7.91522 1.59669 8.56376C1.59893 8.7719 1.62127 8.97933 1.66339 9.18318C1.69227 9.32691 1.70725 9.47309 1.7081 9.6197C1.70834 10.1375 1.51849 10.6373 1.17456 11.0244C0.670185 11.5889 0.391185 12.3193 0.390748 13.0763C0.39031 13.8333 0.668465 14.5639 1.17219 15.129C1.51748 15.5166 1.70822 16.0175 1.7081 16.5366C1.70731 16.6826 1.69259 16.8283 1.66412 16.9715C1.62159 17.1759 1.59901 17.3838 1.59669 17.5925C1.59726 18.2416 1.8027 18.8739 2.18373 19.3994C2.56476 19.9248 3.10193 20.3166 3.71869 20.5189C3.90356 20.5821 4.07817 20.6721 4.23697 20.7859L1.42367 26.1943C1.38661 26.2654 1.36777 26.3445 1.36886 26.4247C1.36994 26.5048 1.3909 26.5834 1.42987 26.6535C1.46884 26.7235 1.52458 26.7828 1.59211 26.8259C1.65963 26.8691 1.73682 26.8948 1.81674 26.9008L5.2916 27.1614L7.49967 29.8541C7.54513 29.9095 7.6023 29.9541 7.66705 29.9847C7.73181 30.0153 7.80256 30.0312 7.87419 30.0313C7.89076 30.0313 7.90732 30.0303 7.92432 30.0286C8.00401 30.0204 8.08041 29.9925 8.14664 29.9474C8.21286 29.9023 8.26683 29.8415 8.30369 29.7704L10.9151 24.7498C11.3941 25.0363 11.9418 25.1876 12.4998 25.1875C13.0579 25.1875 13.6056 25.0361 14.0845 24.7495L16.6961 29.7704C16.7329 29.8415 16.7869 29.9023 16.8531 29.9474C16.9193 29.9925 16.9957 30.0204 17.0754 30.0286C17.0924 30.0303 17.109 30.0313 17.1256 30.0313C17.1972 30.0313 17.268 30.0154 17.3328 29.9847C17.3975 29.9541 17.4547 29.9095 17.5002 29.8541L19.7082 27.1614L23.1826 26.9008C23.2626 26.8949 23.3398 26.8692 23.4073 26.826C23.4749 26.7828 23.5306 26.7236 23.5696 26.6535C23.6086 26.5835 23.6295 26.5048 23.6306 26.4247C23.6317 26.3445 23.6128 26.2654 23.5757 26.1943L20.7608 20.7822C20.9222 20.6701 21.0984 20.5812 21.2845 20.5178C21.9005 20.3152 22.4369 19.9234 22.8174 19.3981C23.1978 18.8729 23.4028 18.241 23.4033 17.5925C23.401 17.3844 23.3787 17.1769 23.3366 16.9731C23.3077 16.8294 23.2927 16.6832 23.2918 16.5366C23.2918 16.0178 23.4823 15.5171 23.8273 15.1296C24.3329 14.5662 24.6116 13.8352 24.6093 13.0781ZM5.25212 26.187L2.62197 25.9898L4.92861 21.5555C4.93287 21.5638 4.93791 21.5716 4.94212 21.5801C4.98825 21.6711 5.02777 21.7653 5.06041 21.8619C5.31574 22.6281 5.8617 23.2633 6.58077 23.6309L5.25212 26.187ZM7.78347 28.6718L6.11199 26.6335L7.51091 23.9427C7.87457 24.002 8.24615 23.9924 8.60628 23.9144C8.74713 23.8865 8.8903 23.8719 9.03388 23.8708C9.08043 23.8704 9.12398 23.879 9.16951 23.8815C9.46741 23.8997 9.75802 23.9811 10.022 24.1204C10.0554 24.1381 10.0907 24.1503 10.1234 24.1698L10.1249 24.1709L7.78347 28.6718ZM17.2165 28.6718L14.875 24.1703C14.9813 24.1068 15.0929 24.0524 15.2084 24.0078C15.4123 23.9329 15.6265 23.8899 15.8435 23.8805C15.8848 23.8784 15.9241 23.8704 15.9663 23.8708C16.0929 23.8731 16.2191 23.886 16.3436 23.9092C16.3607 23.9122 16.3766 23.9113 16.3939 23.9147C16.4014 23.9161 16.4075 23.9162 16.4149 23.9176C16.5438 23.9421 16.6627 23.9578 16.776 23.9679C16.8196 23.9719 16.8616 23.973 16.9037 23.9751C16.9401 23.9767 16.9794 23.9814 17.0145 23.9814C17.0317 23.9814 17.0481 23.9776 17.0653 23.9773C17.2047 23.9772 17.3438 23.9661 17.4814 23.9441L17.4897 23.9434L18.888 26.6338L17.2165 28.6718ZM22.3776 25.9896L19.7478 26.1868L18.4233 23.6383C18.457 23.6209 18.4869 23.5977 18.5199 23.5791C18.5687 23.5518 18.6154 23.5216 18.6625 23.4917C18.7307 23.4481 18.7994 23.406 18.864 23.3572C18.9633 23.2826 19.058 23.2021 19.1476 23.1162C19.1892 23.076 19.2264 23.0317 19.2658 22.9892C19.3282 22.9221 19.3889 22.8538 19.4453 22.7812C19.4792 22.7372 19.5109 22.6917 19.5426 22.6456C19.599 22.5643 19.6509 22.4802 19.6995 22.3934C19.7221 22.3528 19.7456 22.3133 19.7665 22.2715C19.8342 22.139 19.8923 22.0018 19.9402 21.8609L19.9445 21.8506C19.9813 21.7521 20.0254 21.6566 20.0764 21.5648L22.3776 25.9896ZM23.1066 14.4828L23.1042 14.4854C22.6009 15.0501 22.3229 15.7802 22.3231 16.5366C22.3241 16.745 22.3448 16.9529 22.385 17.1574C22.4153 17.3005 22.4318 17.4461 22.4343 17.5924C22.4338 18.037 22.2931 18.4701 22.0322 18.8302C21.7713 19.1902 21.4035 19.4588 20.9811 19.5977C20.4477 19.7744 19.973 20.0942 19.6088 20.5221C19.59 20.5437 19.57 20.5637 19.5518 20.5858C19.4993 20.6507 19.4521 20.7194 19.4049 20.7884C19.382 20.8218 19.3568 20.8532 19.3353 20.8876C19.2851 20.9674 19.2413 21.0513 19.1986 21.1359C19.186 21.1608 19.1707 21.1843 19.1588 21.2096C19.1054 21.3225 19.059 21.4386 19.02 21.5572C18.9872 21.6532 18.9477 21.7469 18.9018 21.8374C18.8864 21.8681 18.8691 21.8975 18.8524 21.9273C18.8209 21.9834 18.7872 22.0376 18.7511 22.0901C18.7269 22.1253 18.7027 22.1605 18.6762 22.1941C18.6449 22.2344 18.6107 22.2716 18.5768 22.3094C18.4373 22.4644 18.2756 22.5978 18.097 22.7055C18.0866 22.7117 18.0765 22.7184 18.0661 22.7245C17.9971 22.7642 17.9259 22.8 17.8529 22.8318L17.8363 22.8388C17.7596 22.8716 17.681 22.8998 17.601 22.9235C17.5758 22.9314 17.5514 22.9359 17.5265 22.9429C17.4687 22.9574 17.412 22.9756 17.3525 22.9852L17.3445 22.9862C17.2453 23.0014 17.1451 23.0095 17.0447 23.0104C17.0124 23.0104 16.9799 23.0104 16.9458 23.0087C16.9152 23.0074 16.8846 23.0061 16.8516 23.003C16.7672 22.9948 16.6788 22.9833 16.5793 22.9639C16.4556 22.9397 16.3307 22.9225 16.2051 22.9123C16.154 22.9081 16.1043 22.9102 16.0536 22.9084C15.9831 22.9061 15.912 22.9012 15.8425 22.9036C15.744 22.9067 15.6476 22.9174 15.5516 22.9297C15.5318 22.9323 15.5113 22.9323 15.4916 22.9353C15.1498 22.986 14.8195 23.0957 14.5153 23.2595L14.5096 23.2622C14.4166 23.3128 14.3263 23.3682 14.2391 23.4281C14.2299 23.4343 14.2201 23.4394 14.211 23.4457C14.1307 23.5014 14.0538 23.5632 13.9779 23.6269C13.9641 23.6385 13.9492 23.648 13.9356 23.6598L13.9336 23.6622C13.9243 23.6703 13.9143 23.6767 13.9048 23.6852C13.5177 24.0292 13.0178 24.2192 12.4999 24.2192C11.982 24.2192 11.4822 24.0292 11.095 23.6852C11.0865 23.6776 11.078 23.6706 11.0695 23.6636L11.0553 23.6523C11.0078 23.6114 10.9569 23.576 10.9076 23.5383C10.8654 23.5058 10.8246 23.4707 10.7811 23.4406C10.7463 23.4163 10.7092 23.397 10.6737 23.3746C10.6107 23.3349 10.5487 23.2936 10.4835 23.2587C10.4677 23.2502 10.4509 23.2441 10.435 23.236C9.81424 22.9188 9.1038 22.8228 8.4211 22.964C8.0803 23.0467 7.72312 23.0318 7.3904 22.921C7.06266 22.8249 6.76313 22.6507 6.51752 22.4134C6.27191 22.1761 6.08756 21.8827 5.98029 21.5584C5.82544 21.0825 5.55402 20.6529 5.19075 20.3087L5.18659 20.3051L5.18223 20.3003L5.17952 20.2987C4.85252 19.979 4.45598 19.7394 4.02094 19.5985C3.59807 19.4599 3.22973 19.1914 2.96838 18.8312C2.70704 18.471 2.56603 18.0375 2.56544 17.5925C2.56794 17.4458 2.58459 17.2997 2.61514 17.1561C2.65514 16.952 2.67581 16.7446 2.67685 16.5366C2.67687 15.779 2.39803 15.0479 1.89352 14.4828C1.5491 14.0953 1.35906 13.5948 1.35949 13.0764C1.35993 12.558 1.55082 12.0578 1.89589 11.6709C2.39913 11.1062 2.6771 10.3761 2.67685 9.6197C2.67588 9.41125 2.65514 9.20336 2.6149 8.99882C2.58456 8.85571 2.568 8.71003 2.56544 8.56376C2.56592 8.11914 2.70662 7.68599 2.96751 7.32596C3.2284 6.96593 3.5962 6.69735 4.01857 6.55845C4.47621 6.40787 4.89213 6.15199 5.23285 5.81137C5.57357 5.47075 5.82958 5.05491 5.98029 4.59731C6.05658 4.36319 6.17401 4.14454 6.32705 3.95164C6.52514 3.70112 6.77708 3.4984 7.0642 3.35852C7.35131 3.21864 7.66623 3.14519 7.9856 3.1436C8.13188 3.14613 8.27758 3.16252 8.42076 3.19257C8.87964 3.28992 9.35485 3.27946 9.809 3.162C10.2632 3.04454 10.6838 2.82329 11.038 2.51566C11.0581 2.50233 11.0773 2.48759 11.0953 2.47153C11.4828 2.12716 11.9833 1.93712 12.5018 1.93751C13.0202 1.9379 13.5204 2.1287 13.9074 2.47366C14.2667 2.79217 14.695 3.02291 15.1586 3.14768C15.6222 3.27245 16.1085 3.28785 16.579 3.19267C16.7223 3.16263 16.868 3.1462 17.0143 3.1436C17.3339 3.14527 17.649 3.21884 17.9363 3.35887C18.2235 3.4989 18.4756 3.7018 18.6737 3.95251C18.8263 4.14526 18.9434 4.36359 19.0197 4.59731C19.1701 5.0546 19.4257 5.47021 19.766 5.81074C20.1063 6.15127 20.5217 6.40722 20.9789 6.55801C21.4018 6.69659 21.7701 6.96507 22.0315 7.32521C22.2928 7.68535 22.4339 8.11878 22.4345 8.56376C22.432 8.71047 22.4154 8.85661 22.3848 9.00013C22.3448 9.20425 22.3241 9.41169 22.3231 9.6197C22.3231 10.3773 22.6019 11.1083 23.1064 11.6734C23.4505 12.0605 23.6405 12.5603 23.6405 13.0781C23.6405 13.596 23.4506 14.0958 23.1066 14.4828Z" fill="#939393"/>
<path d="M17.4445 10.8339L14.6669 10.2906L13.2919 7.81695C13.2134 7.67567 13.0986 7.55794 12.9594 7.47597C12.8201 7.394 12.6615 7.35077 12.4999 7.35077C12.3383 7.35077 12.1797 7.394 12.0404 7.47597C11.9012 7.55794 11.7864 7.67567 11.708 7.81695L10.3329 10.2906L7.5555 10.8339C7.39699 10.8649 7.24966 10.9378 7.12876 11.0449C7.00786 11.1521 6.91778 11.2895 6.86786 11.4432C6.81794 11.5968 6.80998 11.761 6.8448 11.9187C6.87963 12.0764 6.95598 12.222 7.06595 12.3403L8.99347 14.4121L8.65198 17.2221C8.63261 17.3825 8.65645 17.5451 8.72104 17.6932C8.78562 17.8412 8.8886 17.9694 9.01932 18.0643C9.15004 18.1592 9.30374 18.2174 9.46453 18.233C9.62532 18.2485 9.78734 18.2209 9.93383 18.1528L12.5 16.96L15.0666 18.153C15.2131 18.221 15.3751 18.2487 15.5359 18.2331C15.6966 18.2175 15.8503 18.1592 15.981 18.0642C16.1117 17.9693 16.2146 17.8412 16.2791 17.6931C16.3437 17.545 16.3674 17.3824 16.348 17.2221L16.0065 14.4123L17.9344 12.3402C18.0444 12.2219 18.1207 12.0764 18.1556 11.9186C18.1904 11.7609 18.1825 11.5967 18.1325 11.4431C18.0826 11.2894 17.9925 11.1519 17.8716 11.0448C17.7506 10.9377 17.603 10.8649 17.4445 10.8339ZM15.2771 13.774C15.1872 13.8706 15.1194 13.9857 15.0786 14.1112C15.0379 14.2367 15.025 14.3696 15.0411 14.5006L15.3727 17.2271L12.8817 16.0691C12.7621 16.0135 12.6317 15.9847 12.4997 15.9847C12.3678 15.9848 12.2374 16.0137 12.1178 16.0694L9.62732 17.227L9.95844 14.501C9.97471 14.37 9.96206 14.237 9.92136 14.1114C9.88066 13.9857 9.81291 13.8706 9.72289 13.774L7.85209 11.7632L10.548 11.2357C10.6775 11.2105 10.7999 11.1572 10.9066 11.0796C11.0134 11.002 11.1018 10.902 11.1657 10.7866L12.5 8.38623L13.8344 10.7868C13.8984 10.9022 13.9868 11.0021 14.0936 11.0797C14.2003 11.1572 14.3227 11.2105 14.4522 11.2357L17.1479 11.7632L15.2771 13.774Z" fill="#939393"/>
<path d="M12.5 4.16003C10.7812 4.16005 9.10104 4.66975 7.67195 5.62467C6.24285 6.57958 5.12901 7.93683 4.47128 9.52478C3.81356 11.1127 3.64148 12.8601 3.97682 14.5458C4.31216 16.2315 5.13985 17.78 6.35522 18.9953C7.5706 20.2107 9.11907 21.0383 10.8048 21.3736C12.4906 21.7089 14.2379 21.5368 15.8258 20.879C17.4138 20.2212 18.771 19.1074 19.7259 17.6782C20.6807 16.2491 21.1904 14.5689 21.1904 12.8502C21.1877 10.5462 20.2712 8.33732 18.642 6.70817C17.0129 5.07903 14.804 4.16264 12.5 4.16003ZM12.5 20.5718C10.9728 20.5718 9.47996 20.1189 8.21018 19.2704C6.9404 18.422 5.95073 17.216 5.36632 15.8051C4.7819 14.3942 4.629 12.8417 4.92694 11.3438C5.22488 9.84602 5.96028 8.47018 7.04015 7.39032C8.12002 6.31045 9.49585 5.57505 10.9937 5.27711C12.4915 4.97917 14.044 5.13207 15.4549 5.71648C16.8659 6.30089 18.0718 7.29057 18.9203 8.56035C19.7687 9.83013 20.2216 11.323 20.2216 12.8502C20.2192 14.8973 19.4049 16.86 17.9574 18.3075C16.5098 19.7551 14.5472 20.5694 12.5 20.5718Z" fill="#939393"/>
</svg>
