<svg width="31" height="31" viewBox="0 0 31 31" fill="none" xmlns="http://www.w3.org/2000/svg">
<g clip-path="url(#clip0_9_212)">
<path d="M30.0302 15.5C30.0302 11.4878 28.4035 7.85495 25.7747 5.22517C23.1449 2.59645 19.5121 0.96875 15.4999 0.96875C11.4877 0.96875 7.85384 2.59645 5.22507 5.22517C2.59635 7.85389 0.96875 11.4878 0.96875 15.5C0.96875 19.5122 2.59544 23.145 5.22421 25.7748C7.85293 28.4035 11.4868 30.0303 15.499 30.0303C19.5112 30.0303 23.144 28.4036 25.7738 25.7748C28.4035 23.145 30.0302 19.5122 30.0302 15.5ZM26.46 4.53998C29.2633 7.34432 31 11.2193 31 15.5C31 19.7807 29.2643 23.6557 26.46 26.46C23.6557 29.2643 19.7807 31 15.5 31C11.2193 31 7.34335 29.2643 4.53998 26.46C1.73468 23.6546 0 19.7807 0 15.5C0 11.2193 1.7357 7.34432 4.53998 4.53998C7.34426 1.73565 11.2193 0 15.5 0C19.7787 0 23.6557 1.7357 26.46 4.53998Z" fill="#939393"/>
<path d="M17.5415 13.4586C17.7303 13.6472 17.7303 13.955 17.5415 14.1437C17.3528 14.3324 17.045 14.3324 16.8564 14.1437C16.6707 13.9581 16.4578 13.8178 16.2358 13.726C16.0037 13.6301 15.7534 13.5816 15.5011 13.5816C15.0106 13.5816 14.5192 13.7694 14.1449 14.1437C13.9592 14.3294 13.819 14.5423 13.7271 14.7644C13.6312 14.9964 13.5828 15.2477 13.5828 15.5C13.5828 15.9904 13.7705 16.4819 14.1449 16.8562C14.3306 17.0419 14.5435 17.1822 14.7645 17.274H14.7665C14.9986 17.3699 15.2489 17.4183 15.5012 17.4183C15.9916 17.4183 16.4831 17.2306 16.8574 16.8562C17.0462 16.6675 17.3539 16.6675 17.5426 16.8562C17.7312 17.0449 17.7312 17.3527 17.5426 17.5413C16.9794 18.1044 16.2397 18.3869 15.501 18.3869C15.1276 18.3869 14.7503 18.3133 14.3951 18.166V18.1649C14.052 18.0226 13.7321 17.8137 13.4596 17.5413C12.8966 16.9782 12.614 16.2385 12.614 15.4998C12.614 15.1265 12.6877 14.7491 12.835 14.3939C12.9763 14.0528 13.1862 13.7319 13.4597 13.4585C14.0228 12.8953 14.7624 12.6128 15.5011 12.6128C15.8744 12.6128 16.2519 12.6865 16.6071 12.8338C16.9471 12.9752 17.268 13.1851 17.5415 13.4586Z" fill="#939393"/>
<path d="M19.8291 10.4857C20.0179 10.297 20.3256 10.297 20.5143 10.4857C20.703 10.6744 20.703 10.9822 20.5143 11.1709L15.8431 15.8431C15.6543 16.0318 15.3466 16.0318 15.1579 15.8431C14.9692 15.6543 14.9692 15.3466 15.1579 15.1579L19.8291 10.4857Z" fill="#939393"/>
<path d="M10.6956 15.0156C10.963 15.0156 11.18 15.2326 11.18 15.5C11.18 15.7675 10.963 15.9844 10.6956 15.9844H2.58633C2.31893 15.9844 2.10193 15.7675 2.10193 15.5C2.10193 15.2326 2.31888 15.0156 2.58633 15.0156H10.6956Z" fill="#939393"/>
<path d="M20.5163 15.9844C20.2489 15.9844 20.0319 15.7675 20.0319 15.5C20.0319 15.2326 20.2488 15.0156 20.5163 15.0156H28.4136C28.681 15.0156 28.898 15.2326 28.898 15.5C28.898 15.7675 28.681 15.9844 28.4136 15.9844H20.5163Z" fill="#939393"/>
<path d="M15.9844 10.6956C15.9844 10.963 15.7675 11.18 15.5 11.18C15.2326 11.18 15.0156 10.9631 15.0156 10.6956V2.58639C15.0156 2.31899 15.2326 2.10199 15.5 2.10199C15.7675 2.10199 15.9844 2.31894 15.9844 2.58639V10.6956Z" fill="#939393"/>
<path d="M15.0156 20.5163C15.0156 20.2489 15.2326 20.0319 15.5 20.0319C15.7675 20.0319 15.9844 20.2488 15.9844 20.5163V28.4136C15.9844 28.681 15.7675 28.898 15.5 28.898C15.2326 28.898 15.0156 28.681 15.0156 28.4136V20.5163Z" fill="#939393"/>
<path d="M22.0895 7.56632L21.5497 8.10619L21.5487 8.1072L21.5497 8.10826L21.3993 8.2586L20.6556 9.00235V10.3445H21.9997L23.4337 8.91153H22.5739C22.3065 8.91153 22.0895 8.69458 22.0895 8.42713V8.41299L22.0895 7.56632ZM20.8655 7.42403L22.2076 6.0809C22.2964 5.97899 22.4276 5.91339 22.5739 5.91339C22.8412 5.91339 23.0582 6.13034 23.0582 6.39779V7.94171H24.6012V7.94374C24.7253 7.94374 24.8494 7.99115 24.9443 8.08603C25.1319 8.27476 25.131 8.58152 24.9422 8.76919L22.5647 11.1457C22.4759 11.2476 22.3447 11.3132 22.1984 11.3132H20.1842H20.1721C19.9047 11.3132 19.6877 11.0962 19.6877 10.8288V8.80151C19.6877 8.67736 19.7353 8.55325 19.8301 8.45843L20.7161 7.5724L20.8665 7.42307L20.8655 7.42403Z" fill="#939393"/>
<path d="M21.3115 7.52596C21.5264 7.68238 21.5739 7.98412 21.4175 8.19905C21.261 8.41397 20.9593 8.46143 20.7444 8.30501C20.6182 8.21318 20.477 8.11628 20.3226 8.0174L20.2903 7.99522C20.1671 7.9165 20.0309 7.8348 19.8845 7.75203C19.7373 7.66825 19.5848 7.58751 19.4304 7.51082C19.2699 7.43109 19.1146 7.35946 18.9652 7.29691C18.7018 7.18491 18.4263 7.08497 18.1438 6.99719C17.8672 6.91143 17.5847 6.83778 17.2991 6.78024V6.78125L17.2839 6.77821C17.0215 6.72873 16.8501 6.47444 16.9005 6.21211C16.95 5.94972 17.2043 5.77821 17.4667 5.82866L17.4818 5.8317V5.83271H17.4879C17.8077 5.89831 18.1226 5.97905 18.4283 6.07388C18.734 6.1687 19.0398 6.28074 19.3395 6.40789C19.5221 6.48457 19.6968 6.5643 19.8582 6.64505C20.0277 6.72878 20.1972 6.81864 20.3617 6.91245C20.506 6.9942 20.6583 7.08604 20.8178 7.18891L20.8441 7.20406C20.9906 7.29792 21.148 7.40591 21.3115 7.52596ZM15.5 5.63086C15.7674 5.63086 15.9844 5.84781 15.9844 6.11526C15.9844 6.38271 15.7675 6.59966 15.5 6.59966C15.1842 6.59966 14.8814 6.61481 14.5958 6.64302C14.2951 6.67331 13.9965 6.7187 13.7058 6.77826C13.4192 6.83677 13.1346 6.91042 12.8561 6.99724C12.5736 7.08502 12.2981 7.18598 12.0347 7.29696C11.7724 7.40794 11.513 7.5331 11.2618 7.67033L11.2597 7.67139L11.2608 7.6724C11.0115 7.80663 10.7653 7.95697 10.5251 8.11947C10.2859 8.27989 10.0559 8.45145 9.83891 8.63107L9.81469 8.64926C9.6139 8.81576 9.40901 9.00348 9.20619 9.20731C8.99527 9.41823 8.80157 9.63113 8.63001 9.83799L8.62899 9.83901L8.63001 9.84002C8.4514 10.057 8.27883 10.287 8.11836 10.5242C7.95586 10.7644 7.80552 11.0096 7.67134 11.2588L7.67033 11.2598L7.67134 11.2609C7.52905 11.5232 7.40394 11.7816 7.29696 12.0348C7.18496 12.2982 7.08502 12.5737 6.99724 12.8562C6.91047 13.1348 6.83783 13.4183 6.77928 13.7039H6.78029L6.77725 13.718C6.72477 13.9804 6.47049 14.1509 6.20811 14.0985C5.94572 14.046 5.77517 13.7917 5.82765 13.5293L5.83069 13.5152H5.8317L5.83271 13.5122C5.89831 13.1923 5.97905 12.8774 6.07388 12.5717C6.16875 12.2659 6.28074 11.9602 6.40789 11.6605C6.53705 11.3547 6.67529 11.0661 6.82061 10.7997L6.82162 10.8007C6.975 10.5172 7.1415 10.2427 7.31712 9.98332C7.4937 9.72195 7.68441 9.46767 7.88626 9.22347H7.88525C8.09516 8.96817 8.30805 8.73405 8.51999 8.5211C8.72686 8.31423 8.95389 8.10736 9.20214 7.90252L9.22129 7.88535C9.46448 7.68355 9.71982 7.49278 9.98114 7.31722C10.2405 7.14165 10.516 6.97516 10.8005 6.82071L10.8015 6.82173C11.077 6.6724 11.3646 6.5331 11.6593 6.409C11.959 6.28186 12.2648 6.16981 12.5706 6.07499C12.8763 5.98012 13.1912 5.89841 13.511 5.83383C13.834 5.76823 14.165 5.71677 14.4999 5.68349C14.84 5.64803 15.174 5.63086 15.5 5.63086ZM5.63086 15.5C5.63086 15.2326 5.84781 15.0156 6.11526 15.0156C6.38271 15.0156 6.59966 15.2326 6.59966 15.5C6.59966 15.8158 6.61481 16.1186 6.64302 16.4042C6.67331 16.705 6.7187 17.0036 6.77826 17.2942C6.83677 17.5808 6.91042 17.8654 6.99724 18.1439C7.08502 18.4264 7.18598 18.7019 7.29696 18.9653C7.40794 19.2277 7.5331 19.486 7.67033 19.7393C7.80349 19.9845 7.95388 20.2318 8.11836 20.4759C8.28283 20.7201 8.45541 20.9501 8.63001 21.1621C8.80056 21.369 8.99527 21.5809 9.20619 21.7918L9.23142 21.8191C9.42719 22.0139 9.63001 22.1975 9.83592 22.368L9.83693 22.3691L9.83794 22.368C10.0549 22.5477 10.285 22.7193 10.5231 22.8797C10.7633 23.0422 11.0096 23.1926 11.2588 23.3267L11.284 23.3408C11.5282 23.473 11.7794 23.5931 12.0338 23.7011C12.2972 23.8131 12.5716 23.913 12.8552 24.0008C13.1347 24.0876 13.4183 24.1612 13.7048 24.2197C13.9965 24.2793 14.2941 24.3246 14.5949 24.355C14.8805 24.3832 15.1832 24.3983 15.499 24.3983C15.7665 24.3983 15.9834 24.6152 15.9834 24.8827C15.9834 25.1501 15.7665 25.367 15.499 25.367C15.1731 25.367 14.8391 25.3489 14.5 25.3156C14.165 25.2823 13.835 25.2308 13.5111 25.1651C13.1912 25.0995 12.8763 25.0188 12.5706 24.924C12.2648 24.8291 11.9591 24.7171 11.6593 24.5899C11.3717 24.4678 11.0902 24.3336 10.8208 24.1883L10.8006 24.1771C10.516 24.0227 10.2416 23.8553 9.98124 23.6806C9.72088 23.505 9.46559 23.3144 9.22139 23.1125L9.2224 23.1114C8.98625 22.9167 8.76125 22.7129 8.54932 22.502L8.52207 22.4768C8.31013 22.2648 8.09723 22.0307 7.88631 21.7744C7.67944 21.5262 7.48772 21.2709 7.31615 21.0176C7.14358 20.7623 6.97708 20.4868 6.82167 20.2002C6.67133 19.9227 6.53305 19.6351 6.40794 19.3394C6.2808 19.0397 6.16875 18.734 6.07393 18.4283C5.9791 18.1225 5.89735 17.8076 5.83276 17.4878C5.76717 17.1649 5.7157 16.8339 5.68242 16.4989C5.64803 16.16 5.63086 15.826 5.63086 15.5ZM17.4708 25.1714C17.2083 25.2238 16.9531 25.0533 16.9017 24.7909C16.8492 24.5286 17.0197 24.2733 17.2821 24.2218L17.2962 24.2188L17.3205 24.2147C17.597 24.1572 17.8735 24.0855 18.1419 24.0028V24.0017C18.4295 23.9129 18.704 23.812 18.9643 23.702C19.2165 23.5951 19.476 23.4689 19.7382 23.3276L19.7666 23.3135C20.0057 23.1833 20.2428 23.038 20.4749 22.8806C20.713 22.7201 20.9422 22.5486 21.1601 22.3689L21.1843 22.3497C21.3841 22.1832 21.588 21.9965 21.7918 21.7926C22.0038 21.5807 22.1984 21.3689 22.369 21.1609C22.5435 20.949 22.7152 20.7189 22.8796 20.4758C23.044 20.2317 23.1945 19.9853 23.3277 19.7422H23.3266C23.4659 19.4838 23.5921 19.2235 23.7011 18.9662C23.8131 18.7029 23.9131 18.4273 24.0008 18.1448C24.0876 17.8653 24.1613 17.5817 24.2197 17.2952C24.2793 17.0035 24.3247 16.7058 24.355 16.4052C24.3833 16.1195 24.3983 15.8169 24.3983 15.501C24.3983 15.2336 24.6153 15.0166 24.8827 15.0166C25.1501 15.0166 25.3671 15.2336 25.3671 15.501C25.3671 15.827 25.349 16.1609 25.3156 16.5C25.2823 16.835 25.2308 17.165 25.1652 17.4889C25.0996 17.8087 25.0188 18.1236 24.924 18.4294C24.8291 18.7351 24.7171 19.0409 24.5899 19.3406C24.4628 19.6413 24.3236 19.9289 24.1773 20.2004H24.1762L24.1751 20.2024C24.0187 20.49 23.8522 20.7634 23.6807 21.0188C23.5091 21.272 23.3184 21.5264 23.1135 21.7755C22.9027 22.0319 22.6887 22.2669 22.4769 22.4789C22.272 22.6838 22.046 22.8886 21.8007 23.0924L21.7755 23.1146C21.5302 23.3175 21.276 23.5072 21.0156 23.6837C20.7634 23.8553 20.497 24.0167 20.2205 24.1671L20.1993 24.1791C19.9328 24.3236 19.6443 24.4628 19.3385 24.5919C19.0357 24.719 18.7299 24.832 18.4293 24.9259H18.4273C18.1327 25.0167 17.8299 25.0955 17.5231 25.16L17.4847 25.1691L17.4708 25.1714ZM25.1714 13.5282C25.2238 13.7906 25.0533 14.0449 24.7909 14.0974C24.5286 14.1498 24.2743 13.9793 24.2218 13.7169L24.2188 13.7028L24.2147 13.6785C24.1572 13.401 24.0855 13.1256 24.0018 12.8551C23.9141 12.5726 23.8131 12.2971 23.7021 12.0337C23.5992 11.7885 23.7142 11.505 23.9594 11.402C24.2046 11.2991 24.4882 11.4141 24.5912 11.6593C24.7183 11.9591 24.8303 12.2648 24.9252 12.5706C25.017 12.8642 25.0948 13.168 25.1593 13.4758L25.1684 13.5131L25.1714 13.5282Z" fill="#939393"/>
</g>
<defs>
<clipPath id="clip0_9_212">
<rect width="31" height="31" fill="white"/>
</clipPath>
</defs>
</svg>
