<svg width="24" height="21" viewBox="0 0 24 21" fill="none" xmlns="http://www.w3.org/2000/svg">
<path d="M8.83679 3.16407C8.4032 1.72351 7.07983 0.664062 5.5 0.664062C3.92017 0.664062 2.5968 1.72351 2.16321 3.16407H0V5.16408H2.16321C2.5968 6.60464 3.92017 7.66409 5.5 7.66409C7.07983 7.66409 8.4032 6.60464 8.83679 5.16408H24V3.16407H8.83679ZM5.5 5.66408C4.67383 5.66408 4 4.99123 4 4.16408C4 3.33692 4.67383 2.66407 5.5 2.66407C6.32617 2.66407 7 3.33692 7 4.16408C7 4.99123 6.32617 5.66408 5.5 5.66408Z" fill="#393F45"/>
<path d="M18.5 7.16406C16.9202 7.16406 15.5968 8.22351 15.1632 9.66407H0V11.6641H15.1632C15.5968 13.1046 16.9202 14.1641 18.5 14.1641C20.0798 14.1641 21.4032 13.1046 21.8368 11.6641H24V9.66407H21.8368C21.4032 8.22351 20.0798 7.16406 18.5 7.16406ZM18.5 12.1641C17.6738 12.1641 17 11.4912 17 10.6641C17 9.83692 17.6738 9.16407 18.5 9.16407C19.3262 9.16407 20 9.83692 20 10.6641C20 11.4912 19.3262 12.1641 18.5 12.1641Z" fill="#393F45"/>
<path d="M9 13.6641C7.42017 13.6641 6.0968 14.7235 5.66321 16.1641H0V18.1641H5.66321C6.0968 19.6046 7.42017 20.6641 9 20.6641C10.5798 20.6641 11.9032 19.6046 12.3368 18.1641H24V16.1641H12.3368C11.9032 14.7235 10.5798 13.6641 9 13.6641ZM9 18.6641C8.17383 18.6641 7.5 17.9912 7.5 17.1641C7.5 16.3369 8.17383 15.6641 9 15.6641C9.82617 15.6641 10.5 16.3369 10.5 17.1641C10.5 17.9912 9.82617 18.6641 9 18.6641Z" fill="#393F45"/>
</svg>
