<svg width="36" height="34" viewBox="0 0 36 34" fill="none" xmlns="http://www.w3.org/2000/svg">
<ellipse cx="18" cy="16.8221" rx="18" ry="16.8221" fill="white"/>
<path fill-rule="evenodd" clip-rule="evenodd" d="M24.7071 11.2929C25.0976 11.6834 25.0976 12.3166 24.7071 12.7071L12.7071 24.7071C12.3166 25.0976 11.6834 25.0976 11.2929 24.7071C10.9024 24.3166 10.9024 23.6834 11.2929 23.2929L23.2929 11.2929C23.6834 10.9024 24.3166 10.9024 24.7071 11.2929Z" fill="#9D795A"/>
<path fill-rule="evenodd" clip-rule="evenodd" d="M11.2929 11.2929C11.6834 10.9024 12.3166 10.9024 12.7071 11.2929L24.7071 23.2929C25.0976 23.6834 25.0976 24.3166 24.7071 24.7071C24.3166 25.0976 23.6834 25.0976 23.2929 24.7071L11.2929 12.7071C10.9024 12.3166 10.9024 11.6834 11.2929 11.2929Z" fill="#9D795A"/>
</svg>
