<svg width="50" height="48" viewBox="0 0 50 48" fill="none" xmlns="http://www.w3.org/2000/svg">
<path d="M2.34375 40.625H0.78125C0.78125 44.2969 3.75 47.2656 7.42188 47.2656H49.2188V6.64062H8.20312V0.78125H7.42188C3.75 0.78125 0.78125 3.75 0.78125 7.42188V40.625H2.34375C2.34375 37.8125 4.60938 35.5469 7.42188 35.5469H8.20312V8.20312H47.6562V45.7031H7.42188C4.60938 45.7031 2.34375 43.4375 2.34375 40.625ZM6.64062 34.0234C4.92188 34.2188 3.39844 35.0781 2.34375 36.3281V7.42188C2.34375 4.88281 4.21875 2.77344 6.64062 2.42187V34.0234Z" fill="white"/>
<path d="M40.2344 11.3281H35.5469V37.6953L37.8906 42.3828L40.2344 37.6953V11.3281ZM38.6719 12.8906V17.1875H37.1094V12.8906H38.6719ZM37.8906 38.8672L37.1094 37.3047V18.75H38.6719V37.3047L37.8906 38.8672Z" fill="white"/>
<path d="M16.4062 30.0781V31.6406H19.5312L17.5781 42.4609L19.1016 42.7344L21.0938 31.6406H25.7812L27.7734 42.7344L29.2969 42.4609L27.3438 31.6406H30.4688V30.0781H27.0703L26.1719 24.9219C27.3828 24.0625 28.125 22.6172 28.125 21.0938C28.125 18.7891 26.4453 16.8359 24.2188 16.4844V11.3281H22.6562V16.4844C20.4297 16.875 18.75 18.7891 18.75 21.0938C18.75 22.6172 19.4922 24.0234 20.7031 24.9219L19.8047 30.0781H16.4062ZM21.9531 23.8281C20.9375 23.2812 20.3125 22.2266 20.3125 21.0938C20.3125 19.375 21.7188 17.9688 23.4375 17.9688C25.1562 17.9688 26.5625 19.375 26.5625 21.0938C26.5625 22.2266 25.9375 23.2812 24.9219 23.8281L24.4141 24.1016L25.5078 30.0781H21.3672L22.4219 24.1016L21.9531 23.8281Z" fill="white"/>
</svg>
