<svg width="60" height="60" viewBox="0 0 60 60" fill="none" xmlns="http://www.w3.org/2000/svg">
<rect width="60" height="60" rx="30" fill="#9D795A"/>
<g clip-path="url(#clip0_256_4011)">
<path d="M18.0038 30H17.0038M30.0038 17V18M43.0038 30H42.0038M30.0038 32V21M28.0038 30H38.0038M30.0038 42V43M30.0038 15C27.0371 15 24.4706 16.3518 22.0038 18C19.5371 19.6482 17.1392 21.2591 16.0038 24C14.8685 26.7409 14.4251 30.0903 15.0038 33C15.5826 35.9097 16.906 38.9023 19.0038 41C21.1016 43.0978 24.0941 44.4212 27.0038 45C29.9136 45.5787 33.263 45.1353 36.0038 44C38.7448 42.8647 40.3556 40.4667 42.0038 38C43.6521 35.5333 45.0038 32.9667 45.0038 30C45.0038 26.0217 43.8169 21.813 41.0038 19C38.1908 16.187 33.9821 15 30.0038 15Z" stroke="white" stroke-width="1.41176" stroke-linejoin="round"/>
</g>
<defs>
<clipPath id="clip0_256_4011">
<rect width="34" height="32" fill="white" transform="translate(13 14)"/>
</clipPath>
</defs>
</svg>
