<svg width="60" height="60" viewBox="0 0 60 60" fill="none" xmlns="http://www.w3.org/2000/svg">
<rect width="60" height="60" rx="30" fill="#9D795A"/>
<path d="M28.8281 44.1641C29.3555 44.9844 30.5859 44.9844 31.1133 44.1641C39.668 31.8594 41.25 30.5703 41.25 26C41.25 19.7891 36.2109 14.75 30 14.75C23.7305 14.75 18.75 19.7891 18.75 26C18.75 30.5703 20.2734 31.8594 28.8281 44.1641ZM30 30.6875C27.3633 30.6875 25.3125 28.6367 25.3125 26C25.3125 23.4219 27.3633 21.3125 30 21.3125C32.5781 21.3125 34.6875 23.4219 34.6875 26C34.6875 28.6367 32.5781 30.6875 30 30.6875Z" fill="white"/>
</svg>
