<svg width="60" height="61" viewBox="0 0 60 61" fill="none" xmlns="http://www.w3.org/2000/svg">
<rect y="0.262695" width="60" height="60" rx="30" fill="#9D795A"/>
<path d="M44.1211 36.2236L37.5586 33.4111C37.3828 33.3525 37.207 33.2939 36.9727 33.2939C36.5625 33.2939 36.1523 33.5283 35.918 33.8213L32.9883 37.3955C28.418 35.2275 24.7852 31.5947 22.6172 27.0244L26.1914 24.0947C26.4844 23.8604 26.7188 23.4502 26.7188 22.9814C26.7188 22.8057 26.6602 22.6299 26.6016 22.4541L23.7891 15.8916C23.5547 15.3643 23.0273 15.0127 22.4414 15.0127C22.3828 15.0127 22.2656 15.0713 22.1484 15.0713L16.0547 16.4775C15.4102 16.6533 15 17.1807 15 17.8252C15 32.8838 27.1289 45.0127 42.1875 45.0127C42.832 45.0127 43.3594 44.6025 43.5352 43.958L44.9414 37.8643C44.9414 37.7471 44.9414 37.6299 44.9414 37.5713C44.9414 36.9854 44.5898 36.458 44.1211 36.2236Z" fill="white"/>
</svg>
