<svg width="80" height="80" viewBox="0 0 80 80" fill="none" xmlns="http://www.w3.org/2000/svg">
<path d="M27.2294 29.48C29.5227 36.18 33.836 41.2733 39.976 41.2733C45.886 41.2733 50.266 36.2533 52.6327 29.5633C57.4094 24.7467 56.2794 21.1467 55.1794 19.4267C57.7727 7.00667 49.8427 0 39.526 0C21.026 0 24.2527 20.2667 24.2527 20.2667C24.2727 20.27 24.2927 20.27 24.316 20.2733C23.4727 22.18 23.2194 25.3867 27.2294 29.48ZM34.956 14.4333L33.606 19.4633C40.2094 17.45 41.096 16.3433 42.136 15.5867C43.216 14.8033 44.126 14.0067 44.8694 13.2833C45.2127 13.8967 45.6394 14.4567 46.1294 14.9633C46.6194 15.4767 47.346 10.3067 47.346 10.3067C47.346 10.3067 49.1694 13.4467 49.4227 14.4633C49.6027 15.1833 50.756 18.0967 51.376 18.3633C51.1427 27.98 46.8294 38.03 39.976 38.03C33.5927 38.03 29.4127 29.3133 28.6794 20.3467C30.4327 20.24 34.956 14.4333 34.956 14.4333Z" fill="#393F45"/>
<path d="M46.4414 67.0303V68.9703C46.7614 68.9903 47.3347 69.0236 48.1047 69.0236C50.3881 69.0236 54.3347 68.7503 58.1847 67.2069V65.1836C53.0881 67.8069 46.5447 67.0403 46.4414 67.0303Z" fill="#C5C5C5"/>
<path d="M73.1654 56.6557C69.3288 46.5624 60.5687 42.3957 60.4521 42.3391L50.7487 38.7891L46.4721 49.1791L42.0954 43.8524H37.8487L33.4721 49.1791L29.1954 38.7891L19.6654 42.2924L19.5487 42.3424C19.4287 42.3957 10.6654 46.5624 6.83208 56.6557C6.05208 58.7091 5.47208 61.0157 5.21875 63.5791C6.19208 64.7591 7.23208 65.8891 8.31875 66.9724C9.48542 68.1224 10.7154 69.2057 11.9987 70.2257C19.6754 76.3324 29.3921 79.9924 39.9688 79.9991C39.9921 79.9991 40.0121 79.9991 40.0354 79.9991C40.7921 79.9991 41.5387 79.9791 42.2887 79.9391C42.3021 79.9391 42.3221 79.9391 42.3387 79.9391C52.0187 79.4457 60.8821 75.8824 68.0054 70.2191C69.2888 69.2024 70.5187 68.1191 71.6821 66.9691C72.7721 65.8891 73.8087 64.7591 74.7854 63.5757C74.5221 61.0157 73.9488 58.7124 73.1654 56.6557ZM63.9854 66.5024C64.0854 63.1424 64.1221 58.8591 63.8554 55.0491L60.6188 55.2724C60.9454 59.9291 60.8087 65.3524 60.6587 68.7857C55.4554 71.9691 49.4621 73.9757 43.0354 74.4624L41.8187 53.1357H38.1287L36.9121 74.4624C30.5121 73.9691 24.5421 71.9624 19.3521 68.7924C19.1888 65.4257 19.0321 60.0957 19.3387 55.3757L16.1021 55.1657C15.8554 59.0024 15.8987 63.2057 16.0121 66.5091C13.4721 64.5757 11.1754 62.3424 9.16875 59.8624C11.8654 49.8657 20.0154 45.7091 20.8488 45.3091L27.3854 42.9091L32.5387 55.4224L36.9054 50.1124L38.0121 51.6857H41.9421L43.0454 50.1157L47.4087 55.4224L52.5654 42.9024L59.1521 45.3124C60.0088 45.7224 68.1454 49.8824 70.8354 59.8624C68.8221 62.3391 66.5254 64.5724 63.9854 66.5024Z" fill="#393F45"/>
</svg>
