<svg width="60" height="50" viewBox="0 0 60 50" fill="none" xmlns="http://www.w3.org/2000/svg">
<path d="M17.5118 27.3738C25.2569 27.3738 31.5622 21.4062 31.5622 14.0716C31.5622 6.73714 25.2569 0.769531 17.5118 0.769531C9.76935 0.769531 3.46875 6.73714 3.46875 14.0716C3.46875 21.4062 9.77002 27.3738 17.5118 27.3738Z" fill="#9D795A"/>
<path d="M30.6899 25.9107C29.9834 25.524 29.1225 25.6962 28.4969 26.2035C25.5401 28.6014 21.7019 30.0531 17.5101 30.0531C13.3689 30.0531 9.57422 28.6338 6.63274 26.2845C6.00012 25.7793 5.13227 25.6145 4.42807 26.014C1.46495 27.6949 0 30.0424 0 33.1569V44.2074C0 44.9527 0.407376 45.646 1.0512 46.0214C3.41936 47.4023 8.16856 49.9856 17.7412 49.9856C27.3889 49.9856 32.2658 47.4663 34.3866 46.1218C34.9493 45.7651 35.2733 45.1335 35.2733 44.4674V33.1551C35.2733 29.9697 33.7567 27.5892 30.6899 25.9107Z" fill="#9D795A"/>
<path d="M57.7688 9.04383H37.8996C36.6662 9.04383 35.668 8.10534 35.668 6.94574C35.668 5.7874 36.6662 4.84766 37.8996 4.84766H57.7688C58.9996 4.84766 60.0004 5.7874 60.0004 6.94574C60.0004 8.10534 58.9996 9.04383 57.7688 9.04383Z" fill="#D9D9D9"/>
<path d="M57.7649 20.9169H37.8957C36.6623 20.9169 35.6641 19.9771 35.6641 18.8188C35.6641 17.6592 36.6623 16.7207 37.8957 16.7207H57.7649C58.9957 16.7207 59.9965 17.6592 59.9965 18.8188C59.9965 19.9765 58.9957 20.9169 57.7649 20.9169Z" fill="#D9D9D9"/>
<path d="M57.7692 32.7899H41.216C39.9826 32.7899 38.9844 31.8514 38.9844 30.6918C38.9844 29.5335 39.9826 28.5938 41.216 28.5938H57.7692C59.0013 28.5938 60.0008 29.5335 60.0008 30.6918C60.0008 31.8514 59.0013 32.7899 57.7692 32.7899Z" fill="#D9D9D9"/>
<path d="M57.7692 44.6649H41.216C39.9826 44.6649 38.9844 43.7252 38.9844 42.5668C38.9844 41.4072 39.9826 40.4688 41.216 40.4688H57.7692C59.0013 40.4688 60.0008 41.4072 60.0008 42.5668C60.0008 43.7252 59.0013 44.6649 57.7692 44.6649Z" fill="#D9D9D9"/>
</svg>
