<svg width="61" height="54" viewBox="0 0 61 54" fill="none" xmlns="http://www.w3.org/2000/svg">
<path d="M30.875 50.125L30.875 46.375C30.875 44.3031 29.1969 42.6251 27.125 42.6251L4.62509 42.6251C2.55313 42.6251 0.875082 44.3031 0.875082 46.375L0.875082 50.125C0.875082 52.1969 2.55313 53.875 4.62509 53.875L27.125 53.875C29.1968 53.875 30.875 52.1969 30.875 50.125ZM6.50005 50.125C5.46507 50.125 4.62509 49.285 4.62509 48.25C4.62509 47.215 5.46507 46.375 6.50005 46.375L25.2501 46.375C26.2851 46.375 27.125 47.215 27.125 48.25C27.125 49.285 26.2851 50.125 25.2501 50.125L6.50005 50.125ZM60.875 31.375L60.875 27.625C60.875 25.5532 59.1969 23.875 57.125 23.875L4.62501 23.875C2.55305 23.875 0.874999 25.5532 0.874999 27.625L0.874999 31.375C0.874999 33.447 2.55305 35.125 4.62501 35.125L57.125 35.125C59.1969 35.125 60.875 33.4469 60.875 31.375ZM6.50005 31.375C5.46507 31.375 4.62509 30.535 4.62509 29.5C4.62509 28.465 5.46507 27.6249 6.50005 27.6249L55.25 27.625C56.285 27.625 57.1251 28.4649 57.1251 29.5C57.1251 30.5351 56.2851 31.375 55.25 31.375L6.50005 31.375ZM44 12.625L44 8.875C44 6.80313 42.3201 5.125 40.25 5.125L4.62509 5.125C2.55313 5.125 0.875084 6.80313 0.875084 8.875L0.875083 12.625C0.875083 14.6969 2.55313 16.375 4.62509 16.375L40.25 16.375C42.3219 16.375 44 14.6969 44 12.625ZM6.50005 12.625C5.46507 12.625 4.62509 11.785 4.62509 10.75C4.62509 9.7149 5.46507 8.875 6.50005 8.875L38.3751 8.875C39.41 8.875 40.2501 9.71499 40.2501 10.75C40.2501 11.7849 39.4101 12.625 38.3751 12.625L6.50005 12.625Z" fill="#D9D9D9"/>
<path d="M30.875 45.125L30.875 41.375C30.875 39.3031 29.1969 37.6251 27.125 37.6251L4.62509 37.6251C2.55313 37.6251 0.875082 39.3031 0.875082 41.375L0.875082 45.125C0.875082 47.1969 2.55313 48.875 4.62509 48.875L27.125 48.875C29.1968 48.875 30.875 47.1969 30.875 45.125ZM6.50005 45.125C5.46507 45.125 4.62509 44.285 4.62509 43.25C4.62509 42.215 5.46507 41.375 6.50005 41.375L25.2501 41.375C26.2851 41.375 27.125 42.215 27.125 43.25C27.125 44.285 26.2851 45.125 25.2501 45.125L6.50005 45.125ZM60.875 26.375L60.875 22.625C60.875 20.5532 59.1969 18.875 57.125 18.875L4.62501 18.875C2.55305 18.875 0.874999 20.5532 0.874999 22.625L0.874999 26.375C0.874999 28.447 2.55305 30.125 4.62501 30.125L57.125 30.125C59.1969 30.125 60.875 28.4469 60.875 26.375ZM6.50005 26.375C5.46507 26.375 4.62509 25.535 4.62509 24.5C4.62509 23.465 5.46507 22.6249 6.50005 22.6249L55.25 22.625C56.285 22.625 57.1251 23.4649 57.1251 24.5C57.1251 25.5351 56.2851 26.375 55.25 26.375L6.50005 26.375ZM44 7.62501L44 3.875C44 1.80313 42.3201 0.124999 40.25 0.124999L4.62509 0.124998C2.55313 0.124997 0.875084 1.80313 0.875084 3.875L0.875083 7.62501C0.875083 9.69688 2.55313 11.375 4.62509 11.375L40.25 11.375C42.3219 11.375 44 9.69688 44 7.62501ZM6.50005 7.62501C5.46507 7.62501 4.62509 6.78503 4.62509 5.74997C4.62509 4.7149 5.46507 3.875 6.50005 3.875L38.3751 3.875C39.41 3.875 40.2501 4.71499 40.2501 5.74997C40.2501 6.78495 39.4101 7.62501 38.3751 7.62501L6.50005 7.62501Z" fill="#393F45"/>
</svg>
