<svg width="54" height="60" viewBox="0 0 54 60" fill="none" xmlns="http://www.w3.org/2000/svg">
<path d="M50 30H46.25C44.1781 30 42.5001 31.6781 42.5001 33.75V56.2499C42.5001 58.3219 44.1781 59.9999 46.25 59.9999H50C52.0719 59.9999 53.75 58.3219 53.75 56.2499V33.75C53.75 31.6782 52.0719 30 50 30ZM50 54.375C50 55.4099 49.16 56.2499 48.125 56.2499C47.09 56.2499 46.25 55.4099 46.25 54.375V35.6249C46.25 34.5899 47.09 33.75 48.125 33.75C49.16 33.75 50 34.5899 50 35.6249V54.375ZM31.25 0H27.5C25.4282 0 23.75 1.67813 23.75 3.75V56.25C23.75 58.3219 25.4282 60 27.5 60H31.25C33.322 60 35 58.3219 35 56.25V3.75C35 1.67813 33.3219 0 31.25 0ZM31.25 54.375C31.25 55.4099 30.41 56.2499 29.375 56.2499C28.34 56.2499 27.5 55.4099 27.5 54.375V5.62497C27.5 4.58999 28.3399 3.74993 29.375 3.74993C30.4101 3.74993 31.25 4.58991 31.25 5.62497V54.375ZM12.5 16.875H8.75001C6.67813 16.875 5 18.5549 5 20.625V56.2499C5 58.3219 6.67813 59.9999 8.75001 59.9999H12.5C14.5719 59.9999 16.25 58.3219 16.25 56.2499V20.625C16.25 18.5531 14.5719 16.875 12.5 16.875ZM12.5 54.375C12.5 55.4099 11.66 56.2499 10.625 56.2499C9.58991 56.2499 8.75001 55.4099 8.75001 54.375V22.4999C8.75001 21.465 9.58999 20.6249 10.625 20.6249C11.6599 20.6249 12.5 21.4649 12.5 22.4999V54.375Z" fill="#D9D9D9"/>
<path d="M45 30H41.25C39.1781 30 37.5001 31.6781 37.5001 33.75V56.2499C37.5001 58.3219 39.1781 59.9999 41.25 59.9999H45C47.0719 59.9999 48.75 58.3219 48.75 56.2499V33.75C48.75 31.6782 47.0719 30 45 30ZM45 54.375C45 55.4099 44.16 56.2499 43.125 56.2499C42.09 56.2499 41.25 55.4099 41.25 54.375V35.6249C41.25 34.5899 42.09 33.75 43.125 33.75C44.16 33.75 45 34.5899 45 35.6249V54.375ZM26.25 0H22.5C20.4282 0 18.75 1.67813 18.75 3.75V56.25C18.75 58.3219 20.4282 60 22.5 60H26.25C28.322 60 30 58.3219 30 56.25V3.75C30 1.67813 28.3219 0 26.25 0ZM26.25 54.375C26.25 55.4099 25.41 56.2499 24.375 56.2499C23.34 56.2499 22.5 55.4099 22.5 54.375V5.62497C22.5 4.58999 23.3399 3.74993 24.375 3.74993C25.4101 3.74993 26.25 4.58991 26.25 5.62497V54.375ZM7.50001 16.875H3.75001C1.67813 16.875 0 18.5549 0 20.625V56.2499C0 58.3219 1.67813 59.9999 3.75001 59.9999H7.50001C9.57188 59.9999 11.25 58.3219 11.25 56.2499V20.625C11.25 18.5531 9.57188 16.875 7.50001 16.875ZM7.50001 54.375C7.50001 55.4099 6.66003 56.2499 5.62497 56.2499C4.58991 56.2499 3.75001 55.4099 3.75001 54.375V22.4999C3.75001 21.465 4.58999 20.6249 5.62497 20.6249C6.65995 20.6249 7.50001 21.4649 7.50001 22.4999V54.375Z" fill="#393F45"/>
</svg>
