<svg width="75" height="114" viewBox="0 0 75 114" fill="none" xmlns="http://www.w3.org/2000/svg">
<g clip-path="url(#clip0_668_4399)">
<path opacity="0.25" d="M74.3569 58.4166L45.7031 29.4336L0.630503 75.0241L29.2843 104.007L74.3569 58.4166Z" fill="#9D795A"/>
<path d="M74.3569 39.399L45.7031 10.416L0.630503 56.0066L29.2843 84.9896L74.3569 39.399Z" fill="white" stroke="#9D795A" stroke-width="2" stroke-linejoin="round"/>
<path d="M74.3647 34.5201L45.7109 5.53711L0.638316 51.1277L29.2921 80.1107L74.3647 34.5201Z" fill="white" stroke="#9D795A" stroke-width="2" stroke-linejoin="round"/>
<path d="M45.7015 0.647734L0.628906 46.2383L29.2827 75.2213L74.3553 29.6308L45.7015 0.647734Z" fill="white" stroke="#9D795A" stroke-width="2" stroke-linejoin="round"/>
<path d="M41.7891 11.9043L63.0493 33.4088" stroke="#9D795A" stroke-width="2" stroke-linejoin="round"/>
<path d="M39.2773 14.457L60.5376 35.9616" stroke="#9D795A" stroke-width="2" stroke-linejoin="round"/>
<path d="M36.7695 16.9961L58.0298 38.5006" stroke="#9D795A" stroke-width="2" stroke-linejoin="round"/>
<path d="M34.2578 19.5352L55.5181 41.0397" stroke="#9D795A" stroke-width="2" stroke-linejoin="round"/>
<path d="M31.75 22.0742L46.9011 37.4124" stroke="#9D795A" stroke-width="2" stroke-linejoin="round"/>
<path d="M29.2383 24.6133L50.4985 46.1178" stroke="#9D795A" stroke-width="2" stroke-linejoin="round"/>
<path d="M26.7148 27.1523L47.9751 48.6698" stroke="#9D795A" stroke-width="2" stroke-linejoin="round"/>
<path d="M24.2031 29.7051L45.4634 51.2096" stroke="#9D795A" stroke-width="2" stroke-linejoin="round"/>
<path d="M21.6953 32.2441L42.9556 53.7487" stroke="#9D795A" stroke-width="2" stroke-linejoin="round"/>
<path d="M19.1836 34.7832L30.0699 45.7946" stroke="#9D795A" stroke-width="2" stroke-linejoin="round"/>
<path d="M22.9354 73.0116L22.1669 68.7884L18.043 68.063L24.8693 61.1582L29.7617 66.1068L22.9354 73.0116Z" fill="#9D795A"/>
<path d="M29.3908 66.5986C32.3616 66.5986 34.7699 64.1626 34.7699 61.1577C34.7699 58.1528 32.3616 55.7168 29.3908 55.7168C26.42 55.7168 24.0117 58.1528 24.0117 61.1577C24.0117 64.1626 26.42 66.5986 29.3908 66.5986Z" fill="#9D795A" stroke="white" stroke-width="2" stroke-miterlimit="10"/>
</g>
<defs>
<clipPath id="clip0_668_4399">
<rect width="75" height="114" fill="white"/>
</clipPath>
</defs>
</svg>
