<svg width="25" height="25" viewBox="0 0 25 25" fill="none" xmlns="http://www.w3.org/2000/svg">
<g clip-path="url(#clip0_194_4330)">
<path d="M24.3714 14.1779L14.1247 24.3826C13.2963 25.2079 11.9558 25.2079 11.1273 24.3826L1.05027 14.4358C-0.00878906 13.3792 -0.00878906 11.0636 -0.00878906 10.565V2.12332C-0.00878906 0.95733 0.839237 0 2.00928 0L10.9405 0.0125039C12.3537 0.0125039 13.4127 0.364176 14.4725 1.41998L24.3714 11.1918C25.1991 12.0163 25.1991 13.3526 24.3714 14.1779Z" fill="#9D795A"/>
<path d="M5.07336 7.03442C6.15118 7.03442 7.02734 6.15837 7.02734 5.08069C7.02734 4.00301 6.15118 3.12695 5.07336 3.12695C3.99555 3.12695 3.11938 4.00379 3.11938 5.08069C3.11938 6.15837 3.99555 7.03442 5.07336 7.03442Z" fill="#666666"/>
<path d="M5.07371 3.9082C4.42733 3.9082 3.90132 4.43259 3.90132 5.08044C3.90132 5.72674 4.42733 6.25269 5.07371 6.25269C5.72086 6.25269 6.24609 5.72752 6.24609 5.08044C6.24609 4.43337 5.72086 3.9082 5.07371 3.9082Z" fill="white"/>
<path d="M6.96414 13.3253L12.9038 7.38563L17.5283 12.0101L16.6204 12.918L13.082 9.37967L11.6226 10.8391L13.379 12.5956C14.0918 13.3084 14.4821 13.9985 14.55 14.666C14.6292 15.3335 14.3859 15.9501 13.8202 16.5158C13.2376 17.0984 12.5786 17.3445 11.8432 17.254C11.1191 17.1635 10.3837 16.7449 9.637 15.9982L6.96414 13.3253ZM8.89878 13.5629L10.4261 15.0903C10.8504 15.5145 11.2549 15.7549 11.6395 15.8115C12.0242 15.8681 12.3721 15.7408 12.6832 15.4297C13.2942 14.8187 13.1669 14.0805 12.3014 13.215L10.774 11.6877L8.89878 13.5629Z" fill="white"/>
</g>
<defs>
<clipPath id="clip0_194_4330">
<rect width="25" height="25" rx="5" transform="matrix(-1 0 0 1 25 0)" fill="white"/>
</clipPath>
</defs>
</svg>
