<svg width="24" height="24" viewBox="0 0 24 24" fill="none" xmlns="http://www.w3.org/2000/svg">
<path d="M9.74523 2C5.46803 2 2 5.46806 2 9.74523C2 14.0224 5.46803 17.4905 9.74523 17.4905C11.3899 17.4905 12.9153 16.9774 14.1691 16.1036L20.0263 21.9599C20.0792 22.0128 20.1648 22.0128 20.2149 21.9635L21.3184 20.8601C21.3694 20.8091 21.3649 20.7216 21.3148 20.6714L15.5341 14.8907C16.7514 13.5231 17.4904 11.7207 17.4904 9.7452C17.4905 5.46806 14.0224 2 9.74523 2ZM9.74523 16.5793C5.97103 16.5793 2.9112 13.5194 2.9112 9.74523C2.9112 5.97103 5.971 2.91123 9.74523 2.91123C13.5195 2.91123 16.5792 5.97103 16.5792 9.74523C16.5792 13.5194 13.5194 16.5793 9.74523 16.5793Z" fill="#393F45"/>
</svg>
