<svg width="50" height="50" viewBox="0 0 50 50" fill="none" xmlns="http://www.w3.org/2000/svg">
<path d="M2.34375 40.625H0.78125C0.78125 44.2969 3.75 47.2656 7.42188 47.2656H49.2188V6.64062H8.20312V0.78125H7.42188C3.75 0.78125 0.78125 3.75 0.78125 7.42188V40.625H2.34375C2.34375 37.8125 4.60938 35.5469 7.42188 35.5469H8.20312V8.20312H47.6562V45.7031H7.42188C4.60938 45.7031 2.34375 43.4375 2.34375 40.625ZM6.64062 18.1641C6.64062 25 6.64062 31.8359 6.64062 34.0234C4.92188 34.2188 3.39844 35.0781 2.34375 36.3281V7.42188C2.34375 4.88281 4.21875 2.77344 6.64062 2.42187V18.1641Z" fill="white"/>
<path d="M18.75 11.3281L18.5547 11.4453C16.2891 12.7344 14.9219 15.1562 14.9219 17.7734C14.9219 18.0078 14.9219 18.2422 14.9609 18.5156C14.9609 18.5938 15 18.6719 15 18.7891C15.0391 18.9453 15.0391 19.1016 15.0781 19.2188C15.1172 19.3359 15.1172 19.4141 15.1562 19.5312C15.1953 19.6484 15.2344 19.8047 15.2734 19.9219C15.3125 20.0391 15.3516 20.1562 15.3906 20.2344C15.4297 20.3516 15.4688 20.4687 15.5078 20.5469C15.5469 20.6641 15.625 20.7812 15.6641 20.8984C15.7031 20.9766 15.7422 21.0547 15.7813 21.1328C15.8594 21.2891 15.9375 21.4062 16.0156 21.5625C16.0547 21.6016 16.0547 21.6797 16.0938 21.7187C16.2109 21.9141 16.3281 22.0703 16.4844 22.2266C16.4844 22.2266 16.4844 22.2266 16.4844 22.2656C16.6797 22.5391 16.9141 22.7734 17.1484 23.0078L17.5 23.3984C18.3984 24.3359 19.1016 26.9531 19.1016 28.6328V40.1953C19.1016 41.9141 20.5078 43.3203 22.2266 43.3203C23.9453 43.3203 25.3516 41.9141 25.3516 40.1953V28.5937C25.3516 26.9141 26.0156 24.2969 26.9531 23.3594L27.3047 22.9688C27.5391 22.7344 27.7734 22.5 27.9687 22.2266C27.9687 22.2266 27.9687 22.2266 27.9687 22.1875C28.0859 22.0312 28.2031 21.8359 28.3203 21.6797C28.3594 21.6406 28.3984 21.5625 28.3984 21.5234C28.4766 21.3672 28.5547 21.25 28.6328 21.0938C28.6719 21.0156 28.7109 20.9375 28.75 20.8594C28.7891 20.7422 28.8672 20.625 28.9062 20.5078C28.9453 20.3906 28.9844 20.2734 29.0234 20.1953C29.0625 20.0781 29.1016 19.9609 29.1406 19.8828C29.1797 19.7656 29.2188 19.6484 29.2578 19.4922C29.2969 19.375 29.2969 19.2969 29.3359 19.1797C29.375 19.0234 29.375 18.8672 29.4141 18.7109C29.4141 18.6328 29.4531 18.5547 29.4531 18.4375C29.4922 18.2031 29.4922 17.9687 29.4922 17.6953C29.4922 15.1172 28.0859 12.6953 25.8594 11.3672L25.6641 11.3281H24.4141V17.3828C23.0859 18.3203 21.2891 18.3203 20 17.3828V11.3281H18.75ZM23.75 28.5937V40.1563C23.75 41.0156 23.0469 41.7188 22.1875 41.7188C21.3281 41.7188 20.625 41.0156 20.625 40.1563V28.5937C20.625 27.5781 20.3906 26.0547 19.9219 24.6875C20.625 24.9219 21.4062 25.0391 22.1875 25.0391C22.9687 25.0391 23.75 24.9219 24.4531 24.6875C23.9844 26.0547 23.75 27.5781 23.75 28.5937ZM22.1875 19.6484C23.3984 19.6484 24.6484 19.2187 25.625 18.3984L25.9766 18.2422V13.4375C27.1875 14.5313 27.9297 16.0938 27.9297 17.7344C27.9297 17.9297 27.9297 18.125 27.8906 18.3203C27.8906 18.3984 27.8516 18.4766 27.8516 18.5156C27.8516 18.6328 27.8125 18.75 27.8125 18.8672C27.8125 18.9453 27.7734 19.0234 27.7344 19.1406C27.6953 19.2188 27.6953 19.3359 27.6563 19.4141C27.6172 19.5312 27.5781 19.6094 27.5391 19.7266C27.5 19.8047 27.5 19.8828 27.4609 19.9219C27.4219 20.0391 27.3438 20.1563 27.3047 20.2734C27.2656 20.3125 27.2656 20.3516 27.2266 20.4297C27.1484 20.5859 27.0703 20.7031 26.9922 20.8203C26.9922 20.8203 26.9922 20.8594 26.9531 20.8594C26.7578 21.1719 26.5234 21.4453 26.2891 21.7187L26.1719 21.875C25.1562 22.8516 23.75 23.4766 22.2266 23.4766C20.7031 23.4766 19.2969 22.8516 18.2812 21.875L18.0859 21.6797C17.8516 21.4062 17.6172 21.1328 17.4219 20.8203C17.4219 20.8203 17.4219 20.7812 17.3828 20.7812C17.3047 20.6641 17.2266 20.5078 17.1484 20.3516C17.1094 20.3125 17.1094 20.2734 17.0703 20.1953C17.0312 20.0781 16.9531 19.9609 16.9141 19.8438C16.875 19.7656 16.875 19.6875 16.8359 19.6484C16.7969 19.5312 16.7578 19.4531 16.7187 19.3359C16.6797 19.2578 16.6797 19.1406 16.6406 19.0625C16.6016 18.9844 16.6016 18.9062 16.5625 18.7891C16.5234 18.6719 16.5234 18.5547 16.5234 18.4375C16.5234 18.3594 16.4844 18.2813 16.4844 18.2422C16.4844 18.0469 16.4453 17.8516 16.4453 17.6563C16.4453 16.0156 17.1875 14.4141 18.3984 13.3594V18.0078L18.6719 18.2422C19.6875 19.2188 20.9375 19.6484 22.1875 19.6484Z" fill="white"/>
<path d="M32.2656 30.0781L31.8359 30.3125V39.9219C31.8359 41.7969 33.3594 43.3203 35.2344 43.3203C37.1094 43.3203 38.6328 41.7969 38.6328 39.9219V30.2734L38.1641 30.0781C37.8125 29.9219 37.7734 29.6094 37.7734 29.4922C37.7734 29.375 37.8125 29.0625 38.1641 28.9062L38.5938 28.6719V26.0938H35.9766V14.6094H34.4141V26.0547H31.7969V28.6328L32.2266 28.8672C32.5781 29.0234 32.6172 29.3359 32.6172 29.4531C32.6172 29.5703 32.6172 29.8828 32.2656 30.0781ZM33.3984 31.1719C33.9062 30.7422 34.2187 30.1172 34.2187 29.4531C34.2187 28.7891 33.9062 28.1641 33.3984 27.7344V27.6172H37.0313V27.7344C36.5234 28.1641 36.2109 28.7891 36.2109 29.4531C36.2109 30.1172 36.5234 30.7422 37.0313 31.1719V39.8828C37.0313 40.8984 36.2109 41.7188 35.1953 41.7188C34.1797 41.7188 33.3594 40.8984 33.3594 39.8828V31.1719H33.3984Z" fill="white"/>
<path d="M36.2109 11.3281H34.2578V13.4375H36.2109V11.3281Z" fill="white"/>
</svg>
