<svg width="50" height="50" viewBox="0 0 50 50" fill="none" xmlns="http://www.w3.org/2000/svg">
<g clip-path="url(#clip0_39_174)">
<path d="M42.8125 15.1953L46.1328 11.875L38.125 3.86719L34.8047 7.1875C33.4766 6.44531 32.1094 5.89844 30.6641 5.46875V0.78125H19.3359V5.46875C17.8906 5.89844 16.5234 6.44531 15.1953 7.1875L11.875 3.86719L3.86719 11.875L7.1875 15.1953C6.44531 16.5234 5.89844 17.8906 5.46875 19.3359H0.78125V30.6641H5.46875C5.89844 32.1094 6.44531 33.4766 7.1875 34.8047L3.86719 38.125L11.875 46.1328L15.1953 42.8125C16.5234 43.5547 17.8906 44.1016 19.3359 44.5312V49.2188H30.6641V44.5312C32.1094 44.1016 33.4766 43.5547 34.8047 42.8125L38.125 46.1328L46.1328 38.125L42.8125 34.8047C43.5547 33.4766 44.1016 32.1094 44.5312 30.6641H49.2188V19.3359H44.5312C44.1016 17.8906 43.5156 16.5234 42.8125 15.1953ZM47.6562 29.1016H43.3203L43.1641 29.6875C42.7344 31.3672 42.0703 33.0078 41.1719 34.5312L40.8594 35.0391L43.9453 38.125L38.1641 43.9062L35.0781 40.8203L34.5703 41.1328C33.0469 42.0312 31.4062 42.6953 29.7266 43.125L29.1406 43.2812V47.6562H20.9375V43.3203L20.3516 43.1641C18.6719 42.7344 17.0312 42.0703 15.5078 41.1719L15 40.8594L11.9141 43.9453L6.09375 38.125L9.17969 35.0391L8.86719 34.5312C7.96875 33.0078 7.30469 31.3672 6.875 29.6875L6.71875 29.1016H2.34375V20.8984H6.67969L6.83594 20.3125C7.26562 18.6328 7.92969 16.9922 8.82812 15.4687L9.14062 14.9609L6.05469 11.875L11.8359 6.09375L14.9219 9.17969L15.4297 8.86719C16.9531 7.96875 18.5938 7.30469 20.2734 6.875L20.8594 6.71875V2.34375H29.0625V6.67969L29.6484 6.83594C31.3281 7.26562 32.9688 7.92969 34.4922 8.82812L35 9.14062L38.0859 6.05469L43.8672 11.8359L40.7812 14.9219L41.0938 15.4297C41.9922 16.9531 42.6562 18.5938 43.0859 20.2734L43.2422 20.8594H47.6562V29.1016Z" fill="white"/>
<path d="M25 12.5C18.125 12.5 12.5 18.125 12.5 25C12.5 31.875 18.125 37.5 25 37.5C31.875 37.5 37.5 31.875 37.5 25C37.5 18.125 31.875 12.5 25 12.5ZM25 35.9375C18.9844 35.9375 14.0625 31.0156 14.0625 25C14.0625 18.9844 18.9844 14.0625 25 14.0625C31.0156 14.0625 35.9375 18.9844 35.9375 25C35.9375 31.0156 31.0156 35.9375 25 35.9375Z" fill="white"/>
<path d="M24.9609 24.0234C24.2969 23.7109 23.75 23.4375 23.75 22.6172C23.75 21.9531 24.3359 21.3672 25 21.3672C25.3906 21.3672 25.8594 21.5625 26.0938 22.0313L27.5391 21.3281C27.2266 20.5859 26.5234 20.0781 25.7812 19.8828V19.2188H24.2187V19.8828C23.0078 20.2344 22.1484 21.2891 22.1484 22.6953C22.1484 24.375 23.2422 25 24.6875 25.625C25.4297 25.9375 26.2891 26.3281 26.2891 27.3438C26.2891 28.0469 25.6641 28.7109 24.9609 28.7109C24.2578 28.7109 23.8281 28.3594 23.5547 27.8516C23.0859 28.0078 22.6172 28.1641 22.1875 28.2812C22.4219 29.1797 23.2031 29.9609 24.2578 30.1953V30.9766H25.8203V30.1953C26.9922 29.8438 27.8906 28.7109 27.8906 27.3828C27.8516 25.5859 26.9922 24.9219 24.9609 24.0234Z" fill="white"/>
</g>
<defs>
<clipPath id="clip0_39_174">
<rect width="50" height="50" fill="white"/>
</clipPath>
</defs>
</svg>
