<svg width="50" height="50" viewBox="0 0 50 50" fill="none" xmlns="http://www.w3.org/2000/svg">
<path d="M46.4844 35.2344C46.0547 35.2344 45.5469 35.3125 45 35.4688L36.6797 38.3594C36.6797 38.3203 36.6797 38.3203 36.6797 38.2812C36.6797 38.2422 36.6797 38.2031 36.6797 38.1641C36.6797 38.0859 36.6797 38.0469 36.6797 37.9687C36.6797 37.9297 36.6797 37.8906 36.6797 37.8906V37.8516V37.8125C36.6797 37.7344 36.6406 37.6172 36.6406 37.5391C36.6406 37.5391 36.6406 37.5391 36.6406 37.5C36.2891 35.9766 34.8828 34.8437 33.2422 34.8437H26.6406C23.5937 30.9766 16.5234 30.9375 16.2109 30.9375H11.1328V29.0625H0.78125V46.2891H11.1328V44.6484L23.9453 48.7109C24.0234 48.75 25.9375 49.2969 28.125 49.2969C29.4531 49.2969 30.625 49.1016 31.6406 48.6719C34.2188 47.6172 44.5703 42.0703 47.6953 40.3906C48.5547 39.9219 49.7266 38.5937 49.0625 36.9922C48.5547 35.8203 47.6953 35.2344 46.4844 35.2344ZM9.57031 44.6875H2.34375V30.5859H9.57031V30.8594V44.0625V44.6875ZM46.9141 38.9844C43.8281 40.6641 33.5156 46.1328 31.0156 47.1875C30.2344 47.5 29.2578 47.6953 28.125 47.6953C26.1328 47.6953 24.375 47.1875 24.375 47.1875L11.0938 43.0078V32.4219H16.1719C16.25 32.4219 23.125 32.4609 25.5469 36.0156L25.7812 36.3672H33.1641C34.1406 36.3672 34.9609 37.0703 35.0781 38.0078V38.0469C35.0781 38.125 35.0781 38.1641 35.0781 38.2422C35.0781 38.3203 35.0781 38.3984 35.0391 38.4766C35.0391 38.5156 35.0391 38.5547 35.0391 38.5938C35.0391 38.6719 35 38.75 34.9609 38.8281C34.9609 38.8672 34.9609 38.9062 34.9219 38.9062C34.8828 39.0234 34.8438 39.1016 34.7656 39.1797C34.4531 39.6484 33.9062 39.9609 33.2812 39.9609H23.125V41.5234H33.2812C34.3359 41.5234 35.3125 41.0156 35.9375 40.2344L45.4297 36.9531C45.8203 36.8359 46.1719 36.7969 46.4844 36.7969C47.0703 36.7969 47.3438 36.9922 47.5781 37.5391C47.8906 38.2812 47.1484 38.8672 46.9141 38.9844Z" fill="white"/>
<path d="M41.1719 28.5156V13.75L43.0078 15.5859L44.1016 14.4922L41.1719 11.5625V3.67188H36.4453V6.79688L30.8594 1.25L17.6172 14.4922L18.7109 15.5859L20.5469 13.75V28.5156H41.1719ZM38.0078 10.5859V5.23438H39.6094V12.1484V12.1875V26.9531H22.1094V12.1875L30.8594 3.4375L38.0078 10.5859Z" fill="white"/>
</svg>
