<svg width="50" height="50" viewBox="0 0 50 50" fill="none" xmlns="http://www.w3.org/2000/svg">
<path d="M49.2424 15.7091H0.757576C0.339394 15.7091 0 15.3697 0 14.9515V9.75306C0 9.33488 0.339394 8.99548 0.757576 8.99548H49.2424C49.6606 8.99548 50 9.33488 50 9.75306V14.9531C50 15.3712 49.6606 15.7091 49.2424 15.7091ZM1.51515 14.194H48.4848V10.5106H1.51515V14.194Z" fill="white"/>
<path d="M4.75149 41.0046H2.52724C2.30452 41.0046 2.09088 40.9061 1.94694 40.7334C1.803 40.5606 1.7424 40.3349 1.78179 40.1152L6.23027 14.8197C6.29391 14.4591 6.60755 14.194 6.97573 14.194H12.1666C12.4045 14.194 12.6303 14.3061 12.7727 14.497C12.9151 14.6879 12.9606 14.9349 12.8924 15.1637L5.47724 40.4606C5.3833 40.7834 5.08633 41.0046 4.75149 41.0046ZM3.43027 39.4894H4.18482L11.156 15.7091H7.61209L3.43027 39.4894Z" fill="white"/>
<path d="M46.1682 41.0045H43.9424C43.6061 41.0045 43.3106 40.7833 43.2167 40.4606L35.8015 15.1651C35.7334 14.9363 35.7788 14.6894 35.9212 14.4985C36.0652 14.3076 36.2894 14.1954 36.5273 14.1954H41.7182C42.0864 14.1954 42.4 14.4606 42.4637 14.8212L46.9137 40.1166C46.9515 40.3379 46.8909 40.5636 46.7485 40.7348C46.6061 40.906 46.3909 41.0045 46.1682 41.0045ZM44.5091 39.4894H45.2652L41.0818 15.7091H37.5394L44.5091 39.4894Z" fill="white"/>
<path d="M37.9833 20.6758H10.7106C10.2924 20.6758 9.953 20.3364 9.953 19.9182C9.953 19.5 10.2924 19.1606 10.7106 19.1606H37.9833C38.4015 19.1606 38.7409 19.5 38.7409 19.9182C38.7409 20.3364 38.403 20.6758 37.9833 20.6758Z" fill="white"/>
</svg>
