<svg width="30" height="30" viewBox="0 0 30 30" fill="none" xmlns="http://www.w3.org/2000/svg">
<g clip-path="url(#clip0_31_2016)">
<path d="M15 29.5C23.0081 29.5 29.5 23.0081 29.5 15C29.5 6.99187 23.0081 0.5 15 0.5C6.99187 0.5 0.5 6.99187 0.5 15C0.5 23.0081 6.99187 29.5 15 29.5Z" stroke="#393F45"/>
<mask id="mask0_31_2016" style="mask-type:luminance" maskUnits="userSpaceOnUse" x="7" y="8" width="16" height="15">
<path d="M23 8H7V23H23V8Z" fill="white"/>
</mask>
<g mask="url(#mask0_31_2016)">
<path d="M7.83313 15.7317L10.8747 16.77L12.052 20.2329C12.1273 20.4547 12.4238 20.5367 12.6206 20.3895L14.316 19.1253C14.4937 18.9929 14.7469 18.9863 14.9326 19.1096L17.9905 21.1402C18.2011 21.2802 18.4993 21.1746 18.5521 20.942L20.7922 11.0866C20.8499 10.8324 20.5768 10.6204 20.3122 10.714L7.82956 15.1183C7.52152 15.227 7.5242 15.6259 7.83313 15.7317ZM11.8622 16.2173L17.8065 12.8687C17.9134 12.8087 18.0233 12.9409 17.9316 13.0187L13.0258 17.1896C12.8533 17.3364 12.7421 17.5328 12.7106 17.7461L12.5435 18.8788C12.5214 19.03 12.2891 19.0451 12.2435 18.8987L11.6007 16.8332C11.5271 16.5976 11.6344 16.3459 11.8622 16.2173Z" fill="#393F45"/>
</g>
</g>
<defs>
<clipPath id="clip0_31_2016">
<rect width="30" height="30" fill="white"/>
</clipPath>
</defs>
</svg>
