<svg width="24" height="24" viewBox="0 0 24 24" fill="none" xmlns="http://www.w3.org/2000/svg">
<path fill-rule="evenodd" clip-rule="evenodd" d="M9.08604 4.34266C8.29116 5.1512 7.81411 6.32746 7.81411 7.78947C7.81411 9.71685 8.63103 10.8769 9.59981 11.5725C10.5957 12.2875 11.7772 12.5263 12.4621 12.5263C14.1554 12.5263 15.2995 11.8173 16.0326 10.8852C16.78 9.93471 17.11 8.73667 17.11 7.78947C17.11 6.32746 16.633 5.1512 15.8381 4.34266C15.044 3.53493 13.892 3.05263 12.4621 3.05263C11.0321 3.05263 9.88014 3.53493 9.08604 4.34266ZM15.2708 12.8955C15.9125 12.5407 16.4401 12.0696 16.8599 11.5359C17.7682 10.3811 18.1626 8.94753 18.1626 7.78947C18.1626 6.09359 17.6048 4.63828 16.5887 3.6047C15.5719 2.57035 14.1367 2 12.4621 2C10.7875 2 9.35232 2.57033 8.33542 3.6047C7.31928 4.63828 6.76149 6.09358 6.76149 7.78947C6.76149 10.0726 7.75556 11.5442 8.98587 12.4275C9.22498 12.5992 9.47208 12.7481 9.72136 12.8765C8.34645 13.2543 7.23006 13.913 6.32112 14.7299C4.88389 16.0216 3.99309 17.6835 3.39295 19.1716C3.28423 19.4411 3.41464 19.7478 3.68422 19.8565C3.9538 19.9653 4.26047 19.8348 4.36919 19.5653C4.94041 18.1489 5.75624 16.6528 7.02474 15.5127C8.28051 14.3842 10.0074 13.5789 12.4621 13.5789C14.7568 13.5789 16.4134 14.2826 17.6432 15.2925C18.883 16.3107 19.7181 17.6649 20.3165 19.0034C20.7157 19.8964 20.0151 20.9474 18.9155 20.9474H6.77038C6.4797 20.9474 6.24407 21.1829 6.24407 21.4736C6.24407 21.7643 6.4797 22 6.77038 22H18.9155C20.6546 22 22.0367 20.2724 21.2775 18.5738C20.6422 17.1527 19.7235 15.6388 18.3112 14.4791C17.4728 13.7906 16.4708 13.2354 15.2708 12.8955Z" fill="#393F45"/>
</svg>
