<svg width="35" height="35" viewBox="0 0 35 35" fill="none" xmlns="http://www.w3.org/2000/svg">
<g clip-path="url(#clip0_25_48)">
<path d="M34.7593 16.2714L25.9973 7.50926C25.9937 7.50576 25.99 7.50284 25.9864 7.49951C25.9753 7.48898 25.9643 7.47853 25.9525 7.46877C25.9448 7.46253 25.9367 7.45705 25.9289 7.45116C25.9206 7.44507 25.9127 7.43873 25.9041 7.433C25.8954 7.42718 25.8863 7.42205 25.8773 7.41674C25.8691 7.41178 25.861 7.40663 25.8525 7.40202C25.8437 7.39741 25.8347 7.39339 25.8257 7.38919C25.8165 7.38473 25.8074 7.38018 25.7979 7.37626C25.7895 7.37274 25.7809 7.37001 25.7724 7.36692C25.762 7.36315 25.7518 7.35922 25.7411 7.35598C25.7329 7.35349 25.7246 7.3517 25.7164 7.34964C25.7053 7.34674 25.6942 7.34365 25.6828 7.34141C25.6739 7.33962 25.6647 7.33867 25.6557 7.33731C25.6449 7.33568 25.6343 7.33371 25.6234 7.33268C25.6086 7.33113 25.5938 7.33079 25.5791 7.33037C25.5738 7.33027 25.5687 7.32959 25.5633 7.32959H9.43675C9.42975 7.32959 9.42289 7.33044 9.41597 7.33062C9.40296 7.33105 9.38985 7.3313 9.37692 7.3326C9.36512 7.33381 9.35365 7.33585 9.34208 7.33766C9.33387 7.33894 9.32573 7.3398 9.3176 7.34141C9.30545 7.34382 9.29364 7.34707 9.28172 7.35014C9.27428 7.35203 9.26673 7.35364 9.25938 7.35586C9.24791 7.35938 9.23679 7.36356 9.22567 7.36768C9.21797 7.37052 9.21027 7.37291 9.20264 7.37608C9.1922 7.38044 9.18211 7.38539 9.17192 7.39037C9.16397 7.39414 9.156 7.39765 9.14812 7.40175C9.13826 7.40706 9.12885 7.41297 9.11936 7.41878C9.11174 7.42339 9.10396 7.42769 9.09661 7.43265C9.08607 7.43966 9.07614 7.44736 9.06612 7.45499C9.06013 7.45952 9.05397 7.46362 9.04816 7.46842C9.03233 7.48143 9.01716 7.49504 9.00272 7.50951L0.240621 16.2714C0.236946 16.275 0.233757 16.2792 0.23018 16.2829C0.219913 16.2937 0.209705 16.3045 0.200216 16.3161C0.193449 16.3243 0.187557 16.3329 0.181296 16.3413C0.175638 16.349 0.169727 16.3564 0.164438 16.3643C0.158099 16.3737 0.152538 16.3836 0.146802 16.3934C0.142427 16.4008 0.137644 16.4081 0.133521 16.4158C0.128388 16.4255 0.123935 16.4356 0.11923 16.4455C0.11538 16.4537 0.111277 16.4618 0.107757 16.4702C0.107155 16.4716 0.106396 16.473 0.105794 16.4743C0.102546 16.4826 0.100057 16.4911 0.097063 16.4995C0.0938158 16.5086 0.0902963 16.5175 0.0874769 16.5269C0.0844825 16.5368 0.0822463 16.5468 0.0797769 16.5568C0.077463 16.5662 0.0748186 16.5755 0.0728547 16.5851C0.0705408 16.5968 0.0691797 16.6086 0.0674686 16.6203C0.066438 16.6284 0.0648047 16.6363 0.0640463 16.6445C0.0619852 16.6647 0.0609741 16.685 0.0609741 16.7053C0.0609741 16.7255 0.0619852 16.7458 0.0640463 16.766C0.0648241 16.7742 0.0664575 16.7821 0.0675463 16.7902C0.0691797 16.802 0.0705602 16.8138 0.0728547 16.8254C0.0748186 16.835 0.077463 16.8443 0.0797769 16.8538C0.0822658 16.8638 0.0845019 16.8737 0.0874769 16.8837C0.0902963 16.893 0.0937963 16.902 0.097063 16.9112C0.100582 16.9209 0.103732 16.9307 0.107757 16.9403C0.111277 16.9487 0.11538 16.9568 0.11923 16.9651C0.123935 16.9751 0.128388 16.985 0.133521 16.9947C0.137624 17.0024 0.142427 17.0097 0.146802 17.0172C0.152538 17.0269 0.158099 17.0368 0.164438 17.0463C0.169727 17.0541 0.175657 17.0615 0.181296 17.0692C0.187538 17.0776 0.193449 17.0862 0.200216 17.0945C0.209705 17.106 0.219913 17.1168 0.23018 17.1276C0.233757 17.1313 0.236946 17.1354 0.240621 17.1391L17.0662 33.9647C17.186 34.0844 17.3431 34.1444 17.5001 34.1444C17.6571 34.1444 17.8141 34.0844 17.934 33.9647L34.7593 17.1391C34.9989 16.8995 34.9989 16.511 34.7593 16.2714ZM9.69099 8.55671H14.2502L9.11254 16.0917H2.15572L9.69099 8.55671ZM19.2645 8.55671L24.4024 16.0917H10.5977L15.7354 8.55671H19.2645ZM25.3091 8.55671L32.8442 16.0917H25.8876L20.7497 8.55671H25.3091ZM24.5731 17.3188L17.5001 31.5459L10.427 17.3188H24.5731ZM9.05656 17.3188L15.8792 31.0422L2.1558 17.3188H9.05656ZM25.9436 17.3188H32.8442L19.1209 31.0422L25.9436 17.3188Z" fill="#393F45"/>
<path d="M17.5 5.53067C17.8389 5.53067 18.1136 5.256 18.1136 4.91712V1.46951C18.1136 1.13063 17.8389 0.855957 17.5 0.855957C17.1611 0.855957 16.8865 1.13063 16.8865 1.46951V4.91714C16.8865 5.256 17.1612 5.53067 17.5 5.53067Z" fill="#393F45"/>
<path d="M22.2056 5.21595C22.3024 5.27203 22.4081 5.29865 22.5125 5.29865C22.7242 5.29865 22.9303 5.1889 23.044 4.99245L24.7719 2.00901C24.9417 1.71585 24.8416 1.34044 24.5484 1.17059C24.2551 1.00078 23.8798 1.10084 23.71 1.3941L21.9821 4.37754C21.8123 4.67073 21.9124 5.04614 22.2056 5.21595Z" fill="#393F45"/>
<path d="M28.0352 5.9661C28.1922 5.9661 28.3493 5.90617 28.4691 5.78643L30.9068 3.34866C31.1464 3.10899 31.1464 2.72056 30.9068 2.48089C30.6672 2.2414 30.2788 2.2414 30.0391 2.48089L27.6013 4.91866C27.3617 5.15833 27.3617 5.54676 27.6013 5.78643C27.7211 5.90619 27.8782 5.9661 28.0352 5.9661Z" fill="#393F45"/>
<path d="M11.9559 4.99242C12.0697 5.18887 12.2757 5.29861 12.4875 5.29861C12.5918 5.29861 12.6976 5.27199 12.7943 5.21591C13.0876 5.0461 13.1877 4.67067 13.0178 4.37751L11.29 1.39407C11.1203 1.10081 10.7447 1.00082 10.4516 1.17056C10.1583 1.34038 10.0583 1.71582 10.2281 2.00898L11.9559 4.99242Z" fill="#393F45"/>
<path d="M6.53102 5.78643C6.65086 5.90617 6.80793 5.9661 6.9649 5.9661C7.12188 5.9661 7.27897 5.90617 7.39879 5.78643C7.63838 5.54676 7.63838 5.15833 7.39879 4.91866L4.96102 2.48089C4.72135 2.2414 4.33292 2.2414 4.09327 2.48089C3.85368 2.72056 3.85368 3.10899 4.09327 3.34866L6.53102 5.78643Z" fill="#393F45"/>
</g>
<defs>
<clipPath id="clip0_25_48">
<rect width="35" height="35" fill="white"/>
</clipPath>
</defs>
</svg>
