<svg width="35" height="35" viewBox="0 0 35 35" fill="none" xmlns="http://www.w3.org/2000/svg">
<g clip-path="url(#clip0_25_161)">
<path d="M34.3728 27.9189C34.2109 27.7507 34.0435 27.5769 33.8395 27.4199C31.827 25.87 29.6252 24.4484 27.1084 23.074C26.703 22.8526 26.3828 22.6779 26.0226 22.6779C25.5417 22.6779 25.2106 22.9788 24.7914 23.3597C24.3258 23.7829 23.8754 24.2086 23.4447 24.6321C23.2081 24.8647 22.9773 25.0966 22.7536 25.327C22.6956 25.3868 22.6356 25.4363 22.5731 25.4788C22.3544 25.6275 22.0986 25.6752 21.7374 25.6436C20.7934 25.5603 19.8389 25.2803 18.8193 24.7877C17.0616 23.9384 15.4467 22.6542 13.8824 20.8618C11.944 18.6406 10.6085 16.3484 9.79947 13.8541L9.72541 13.6274C9.62183 13.312 9.50454 12.9545 9.52742 12.8783C9.54166 12.8304 9.61658 12.7419 9.7249 12.6307C9.84736 12.5046 10.0127 12.3493 10.1834 12.189L10.2456 12.1307C10.3646 12.0189 10.487 11.9081 10.6105 11.798C10.8928 11.5464 11.1828 11.2991 11.4665 11.0578C11.762 10.8066 12.0675 10.5468 12.3643 10.2817C13.0706 9.65035 13.2202 9.2866 12.7143 8.37742C11.7375 6.62232 10.6304 4.63308 9.46219 2.69859C9.11946 2.13128 8.70096 1.62339 8.29636 1.13217C8.12144 0.919775 7.94049 0.700189 7.77252 0.483402C7.65753 0.334925 7.48022 0.248047 7.29234 0.248047H7.09724C6.95343 0.248047 6.81436 0.299069 6.7046 0.391955C4.79875 2.0061 3.2569 3.96135 1.76573 5.85221L1.48316 6.2103C1.2018 6.56648 0.945599 6.93921 0.697877 7.29957C0.585916 7.46238 0.473975 7.62527 0.359894 7.78639C0.287172 7.88901 0.248108 8.01173 0.248108 8.13751V8.65761C0.248108 8.69957 0.252444 8.74136 0.261077 8.78239C0.305061 8.99196 0.346166 9.20231 0.387369 9.41266C0.478719 9.88014 0.573316 10.3636 0.699744 10.8407C1.37528 13.3891 2.49466 15.8416 4.12175 18.3385C7.58749 23.6563 11.9468 28.0727 17.0786 31.4647C19.4425 33.0271 21.7399 34.0212 24.102 34.5034C24.4338 34.5712 24.7672 34.6234 25.0896 34.6737C25.2356 34.6965 25.3816 34.7194 25.5274 34.7436C25.5603 34.7492 25.5937 34.7519 25.6271 34.7519H26.8624C26.9652 34.7519 27.0664 34.7258 27.1564 34.676C29.6303 33.3081 31.787 31.5937 33.5704 30.0971C33.8306 29.8788 34.0601 29.6408 34.2821 29.4106C34.3781 29.3111 34.4742 29.2116 34.5721 29.1144C34.6871 29.0003 34.7519 28.845 34.7519 28.6829V28.553C34.7519 28.3892 34.6858 28.2323 34.5685 28.118C34.502 28.0531 34.4374 27.986 34.3728 27.9189ZM7.13282 1.62963C7.2085 1.72242 7.2841 1.81422 7.35859 1.90473C7.75292 2.3833 8.12531 2.83546 8.4222 3.32674C9.5792 5.24268 10.6808 7.22201 11.6526 8.96818C11.7022 9.05733 11.74 9.12844 11.7657 9.18131C11.702 9.24404 11.6119 9.32444 11.5546 9.37564C11.2691 9.6309 10.9693 9.88567 10.6795 10.1321C10.3727 10.393 10.0584 10.6605 9.74987 10.9372L3.91597 5.10332C4.91044 3.87924 5.95727 2.67911 7.13282 1.62963ZM26.7046 33.5368H25.677C25.5438 33.515 25.4105 33.4941 25.2771 33.4733C24.9543 33.4228 24.6493 33.3751 24.3451 33.313C22.1382 32.8624 19.9803 31.9262 17.7485 30.451C12.7563 27.1512 8.51398 22.8528 5.13959 17.6751C3.58427 15.2882 2.51609 12.9508 1.87411 10.5295C1.75801 10.091 1.67138 9.64823 1.5797 9.17939C1.54157 8.9844 1.50334 8.78937 1.46307 8.59488V8.32953C1.54223 8.21597 1.62063 8.10189 1.69909 7.98781C1.94641 7.62797 2.18015 7.28804 2.43658 6.96344L2.71975 6.60459C2.86315 6.42273 3.00722 6.24018 3.15188 6.05754L8.86596 11.7716C8.60671 12.038 8.44519 12.2565 8.3634 12.53C8.23135 12.9714 8.35924 13.3609 8.57095 14.0062L8.64383 14.2289C9.50438 16.8824 10.9185 19.3133 12.967 21.6606C14.6412 23.579 16.3827 24.9597 18.2907 25.8817C19.4451 26.4394 20.5376 26.7574 21.6309 26.8538C21.7362 26.8631 21.8391 26.8678 21.9366 26.8678C21.9367 26.8678 21.9367 26.8678 21.9367 26.8678C22.5292 26.8678 23.0234 26.6964 23.4401 26.3458L29.1135 32.0192C28.3484 32.5511 27.5448 33.0655 26.7046 33.5368ZM32.7894 29.1664C31.974 29.8507 31.0786 30.5811 30.1125 31.2999L24.3039 25.4912C24.721 25.0814 25.1573 24.669 25.6085 24.2588C25.7369 24.1421 25.9444 23.9536 26.0384 23.8984C26.1402 23.9296 26.3785 24.0598 26.5262 24.1403C28.9867 25.484 31.1364 26.8716 33.0982 28.3825C33.1853 28.4495 33.2709 28.5304 33.3582 28.6183C33.1669 28.8164 32.9838 29.0033 32.7894 29.1664Z" fill="#393F45"/>
<path d="M32.2613 17.5221C30.9693 17.5221 29.9182 16.4709 29.9182 15.1789C29.9182 10.1466 25.8241 6.05252 20.7918 6.05252C19.4997 6.05252 18.4486 5.00137 18.4486 3.70936C18.4486 2.41736 19.4997 1.36621 20.7918 1.36621C28.4081 1.36621 34.6045 7.56259 34.6045 15.179C34.6045 16.4709 33.5533 17.5221 32.2613 17.5221ZM20.7918 2.58118C20.1697 2.58118 19.6636 3.08728 19.6636 3.70936C19.6636 4.33143 20.1697 4.83755 20.7918 4.83755C26.494 4.83755 31.1332 9.47665 31.1332 15.1789C31.1332 15.801 31.6393 16.3071 32.2613 16.3071C32.8834 16.3071 33.3895 15.801 33.3895 15.1789C33.3895 8.23251 27.7382 2.58118 20.7918 2.58118Z" fill="#393F45"/>
<path d="M26.2224 19.1042C25.249 19.1042 24.4573 18.3124 24.4573 17.339C24.4573 14.0941 21.8173 11.4542 18.5724 11.4542C17.5991 11.4542 16.8073 10.6623 16.8073 9.68899C16.8073 8.71564 17.5991 7.92383 18.5724 7.92383C23.7639 7.92383 27.9876 12.1475 27.9876 17.339C27.9876 18.3124 27.1958 19.1042 26.2224 19.1042ZM18.5724 9.13881C18.269 9.13881 18.0222 9.3856 18.0222 9.68901C18.0222 9.99243 18.269 10.2392 18.5724 10.2392C22.4872 10.2392 25.6722 13.4242 25.6722 17.339C25.6722 17.6424 25.919 17.8892 26.2224 17.8892C26.5258 17.8892 26.7726 17.6424 26.7726 17.339C26.7726 12.8174 23.094 9.13881 18.5724 9.13881Z" fill="#393F45"/>
</g>
<defs>
<clipPath id="clip0_25_161">
<rect width="35" height="35" fill="white"/>
</clipPath>
</defs>
</svg>
