<svg width="35" height="35" viewBox="0 0 35 35" fill="none" xmlns="http://www.w3.org/2000/svg">
<path d="M7.56491 12.917C6.97858 12.917 6.50342 13.3922 6.50342 13.9784C6.50342 14.4179 6.77045 14.795 7.15125 14.9562C7.27836 15.0101 7.4182 15.0399 7.56489 15.0399C8.12287 15.0399 8.57927 14.6091 8.62205 14.0621C8.62424 14.0343 8.62628 14.0066 8.62628 13.9784C8.62632 13.3922 8.15114 12.917 7.56491 12.917Z" fill="#393F45"/>
<path d="M34.7013 11.9094C34.5537 11.6076 34.1892 11.4828 33.8876 11.6304C33.586 11.7781 33.461 12.1423 33.6087 12.444C33.7082 12.6474 33.7226 12.8773 33.6491 13.0914C33.5757 13.3055 33.4232 13.4782 33.2198 13.5778C33.0165 13.6773 32.7865 13.6917 32.5725 13.6182C32.3585 13.5448 32.1858 13.3924 32.0863 13.189C32.0594 13.1341 32.0253 13.0852 31.9858 13.0426C31.2129 11.5097 30.028 10.1064 28.4741 8.91462C26.9159 7.71955 25.0836 6.81396 23.0882 6.23193C23.1877 5.89587 23.242 5.5406 23.242 5.17268C23.242 3.11254 21.566 1.43652 19.5059 1.43652C17.4458 1.43652 15.7697 3.11254 15.7697 5.17268C15.7697 5.30272 15.7765 5.43123 15.7896 5.55791C15.1621 5.61652 14.5432 5.70433 13.9357 5.82082C11.6801 4.056 9.09448 3.03758 6.7542 3.03758C5.00195 3.03758 3.5078 3.60551 2.43326 4.68003C2.19576 4.91758 2.19576 5.30266 2.43326 5.54016L6.27165 9.37853C4.89386 10.5528 3.84932 11.9061 3.17518 13.37H0.691211C0.355288 13.37 0.0830078 13.6423 0.0830078 13.9782V20.8371C0.0830078 21.1731 0.355288 21.4453 0.691211 21.4453H3.17522C3.93999 23.106 5.18093 24.6246 6.84478 25.9007C7.58273 26.4667 8.38236 26.9674 9.23139 27.4001V31.3428C9.23139 31.6787 9.50367 31.951 9.83959 31.951H14.4156C14.7515 31.951 15.0238 31.6787 15.0238 31.3428V29.1711C15.886 29.2858 16.7671 29.3444 17.6594 29.3444C18.5518 29.3444 19.4329 29.2858 20.2951 29.1711V31.3428C20.2951 31.6787 20.5674 31.951 20.9033 31.951H25.4793C25.8152 31.951 26.0875 31.6787 26.0875 31.3428V27.4001C26.9365 26.9674 27.7362 26.4667 28.4741 25.9007C31.4175 23.6433 33.0385 20.6271 33.0385 17.4077C33.0385 16.5453 32.9211 15.6976 32.6942 14.8751C32.7458 14.879 32.7975 14.8815 32.849 14.8815C33.1592 14.8815 33.4677 14.8107 33.7544 14.6704C34.2497 14.4281 34.6209 14.0074 34.7998 13.486C34.9786 12.9646 34.9437 12.4046 34.7013 11.9094ZM16.9862 5.1727C16.9862 3.78331 18.1165 2.65297 19.5059 2.65297C20.8952 2.65297 22.0256 3.78331 22.0256 5.1727C22.0256 5.43658 21.9847 5.69101 21.909 5.93025C21.7746 6.35603 21.5298 6.73319 21.2084 7.02832C20.7597 7.44038 20.1617 7.69244 19.5059 7.69244C18.6853 7.69244 17.9553 7.29792 17.4948 6.68882C17.2348 6.34463 17.0614 5.93179 17.0059 5.4828C16.9934 5.38108 16.9862 5.27773 16.9862 5.1727ZM26.0875 26.0177C25.6971 26.2373 25.2909 26.4417 24.8711 26.6305V27.9596V30.7346H21.5115V28.9688V27.7249C21.113 27.8102 20.7071 27.8822 20.2951 27.9411C19.4408 28.0633 18.56 28.128 17.6594 28.128C16.7589 28.128 15.8781 28.0633 15.0238 27.9411C14.6119 27.8822 14.2059 27.8102 13.8074 27.7249V28.9688V30.7346H10.4478V27.9596V26.6305C10.028 26.4417 9.62185 26.2373 9.23137 26.0177C7.1632 24.8548 5.52736 23.2755 4.54055 21.4454C4.32798 21.051 4.14557 20.645 3.99546 20.229H2.70914H1.29941V14.5864H2.70921H3.99546C4.14557 14.1704 4.328 13.7644 4.54063 13.37C5.16437 12.2131 6.04716 11.1565 7.13512 10.242C7.44432 9.98203 7.76981 9.73347 8.1109 9.49741L7.23794 8.62449L3.75645 5.14298C4.55142 4.55942 5.57525 4.254 6.75424 4.254C8.56038 4.254 10.5479 4.95327 12.3791 6.18954C12.8028 6.47565 13.2183 6.7904 13.6211 7.13215C14.1146 7.02083 14.619 6.9288 15.1332 6.85843C15.4585 6.81392 15.7879 6.77817 16.1205 6.75079C16.2983 7.13083 16.5383 7.47601 16.8274 7.77358C14.3379 8.01829 11.9424 8.82952 10.3807 10.0062C10.1124 10.2083 10.0587 10.5896 10.2609 10.858C10.463 11.1263 10.8444 11.1798 11.1126 10.9777C12.5589 9.88815 15.4862 8.82874 18.7586 8.91707C21.296 8.98571 24.8451 9.76359 27.3431 13.0794C27.4627 13.2381 27.6449 13.3217 27.8293 13.3217C27.9568 13.3217 28.0853 13.2818 28.1949 13.1992C28.4632 12.9971 28.5168 12.6157 28.3147 12.3475C26.7158 10.2253 24.466 8.77268 21.8131 8.10797C22.0909 7.88918 22.3369 7.63213 22.5431 7.34445C27.9534 8.85357 31.8221 12.795 31.8221 17.4077C31.8221 20.931 29.5647 24.0624 26.0875 26.0177Z" fill="#393F45"/>
</svg>
