<svg width="35" height="35" viewBox="0 0 35 35" fill="none" xmlns="http://www.w3.org/2000/svg">
<g clip-path="url(#clip0_25_139)">
<path d="M21.2881 22.0703L19.1713 21.7294C18.9876 21.067 18.7241 20.4316 18.3849 19.8324L19.641 18.0939C19.8153 17.8528 19.7887 17.5207 19.5783 17.3104L17.6907 15.4227C17.4802 15.212 17.1482 15.1857 16.9072 15.3599L15.1687 16.6161C14.5695 16.2768 13.934 16.0135 13.2717 15.8297L12.9307 13.7128C12.8834 13.4191 12.6299 13.2031 12.3323 13.2031H9.66258C9.36504 13.2031 9.11154 13.4191 9.06419 13.7128L8.72324 15.8296C8.06102 16.0133 7.42569 16.2767 6.82633 16.616L5.08782 15.3599C4.84673 15.1857 4.51472 15.2122 4.30431 15.4226L2.41659 17.3103C2.20622 17.5207 2.17962 17.8527 2.35388 18.0939L3.60997 19.8324C3.2707 20.4318 3.00731 21.0671 2.82358 21.7294L0.706738 22.0702C0.41301 22.1176 0.197021 22.3711 0.197021 22.6686V25.3385C0.197021 25.636 0.412972 25.8895 0.706699 25.9368L2.82358 26.2778C3.00741 26.9401 3.27074 27.5754 3.60997 28.1747L2.35388 29.9132C2.17962 30.1543 2.2062 30.4863 2.41659 30.6968L4.30431 32.5845C4.51468 32.7949 4.84666 32.8213 5.08782 32.6472L6.82633 31.391C7.42565 31.7302 8.06098 31.9936 8.72324 32.1774L9.06419 34.2942C9.1115 34.588 9.36504 34.8039 9.66258 34.8039H12.3323C12.6299 34.8039 12.8834 34.588 12.9307 34.2942L13.2717 32.1773C13.934 31.9936 14.5694 31.7302 15.1685 31.391L16.9072 32.6472C17.1483 32.8214 17.4804 32.795 17.6907 32.5845L19.5784 30.6968C19.7888 30.4864 19.8154 30.1544 19.6411 29.9133L18.3849 28.1747C18.7241 27.5756 18.9875 26.9402 19.1713 26.2778L21.2882 25.9368C21.5819 25.8895 21.7979 25.636 21.7979 25.3385V22.6686C21.7979 22.3711 21.5819 22.1176 21.2881 22.0703ZM20.5857 24.8222L18.5846 25.1445C18.3402 25.1839 18.1443 25.368 18.0898 25.6096C17.9078 26.4166 17.5908 27.1813 17.1476 27.8823C17.0152 28.0916 17.0236 28.3604 17.1686 28.5611L18.3562 30.2048L17.1986 31.3623L15.5549 30.1747C15.3542 30.0297 15.0854 30.0214 14.8761 30.1537C14.175 30.5969 13.4105 30.9138 12.6035 31.0957C12.362 31.1502 12.1779 31.3461 12.1384 31.5906L11.8161 33.5918H10.1788L9.85652 31.5907C9.81712 31.3462 9.633 31.1503 9.39148 31.0959C8.58464 30.9139 7.81994 30.5969 7.11864 30.1537C6.90932 30.0214 6.64054 30.0297 6.43989 30.1747L4.79635 31.3623L3.63873 30.2047L4.82618 28.5611C4.9712 28.3604 4.97958 28.0917 4.84728 27.8824C4.40402 27.1811 4.08706 26.4164 3.90512 25.6096C3.85061 25.368 3.65471 25.1839 3.41025 25.1445L1.40919 24.8222V23.1849L3.41025 22.8627C3.65475 22.8233 3.85069 22.6391 3.90515 22.3976C4.08698 21.5909 4.40396 20.8262 4.84732 20.1248C4.97962 19.9154 4.97124 19.6467 4.82622 19.446L3.63877 17.8024L4.79639 16.6448L6.43993 17.8324C6.64062 17.9774 6.90946 17.9858 7.11872 17.8534C7.82014 17.41 8.58479 17.093 9.39143 16.9112C9.633 16.8568 9.81716 16.6608 9.85655 16.4163L10.1789 14.4153H11.8162L12.1385 16.4164C12.1779 16.6608 12.3621 16.8568 12.6035 16.9113C13.4105 17.0932 14.175 17.4101 14.8762 17.8534C15.0855 17.9857 15.3543 17.9774 15.555 17.8324L17.1987 16.6448L18.3562 17.8024L17.1687 19.4461C17.0236 19.6468 17.0153 19.9156 17.1476 20.1249C17.5909 20.826 17.9079 21.5906 18.0899 22.3975C18.1443 22.6391 18.3402 22.8233 18.5847 22.8627L20.5858 23.1849V24.8222H20.5857Z" fill="#393F45"/>
<path d="M10.9974 18.0527C7.71597 18.0527 5.04639 20.7223 5.04639 24.0037C5.04639 27.2852 7.71597 29.9548 10.9974 29.9548C14.2789 29.9548 16.9486 27.2852 16.9486 24.0037C16.9486 20.7223 14.2789 18.0527 10.9974 18.0527ZM10.9974 28.7426C8.38438 28.7426 6.25853 26.6168 6.25853 24.0037C6.25853 21.3907 8.38438 19.2649 10.9974 19.2649C13.6105 19.2649 15.7364 21.3907 15.7364 24.0037C15.7364 26.6168 13.6105 28.7426 10.9974 28.7426Z" fill="#393F45"/>
<path d="M34.3597 11.3117L32.9108 10.3388C32.994 9.79904 33.0155 9.25376 32.9748 8.70967L34.4945 7.85273C34.7536 7.70653 34.8684 7.39394 34.7653 7.11483L33.9864 5.00591C33.8833 4.7267 33.593 4.56403 33.301 4.6211L31.5891 4.95753C31.2663 4.51768 30.8956 4.11724 30.4816 3.76109L30.9502 2.08C31.03 1.79337 30.8901 1.49127 30.6199 1.3668L28.5782 0.426313C28.3079 0.301518 27.9873 0.391818 27.8215 0.638879L26.8485 2.08788C26.3098 2.00518 25.7638 1.98337 25.2195 2.02395L24.3625 0.504285C24.2162 0.245051 23.9037 0.13031 23.6245 0.233463L21.5156 1.01237C21.2364 1.11544 21.0735 1.40587 21.1309 1.69784L21.4674 3.40954C21.0275 3.73228 20.6269 4.10304 20.2708 4.51717L18.5899 4.04848C18.3033 3.96892 18.0011 4.1086 17.8766 4.37875L16.936 6.42045C16.8116 6.69067 16.9017 7.01131 17.1486 7.17719L18.5974 8.15015C18.5143 8.69003 18.4928 9.23531 18.5336 9.77923L17.014 10.6362C16.7549 10.7824 16.6401 11.0951 16.7432 11.3741L17.5221 13.4831C17.6252 13.7622 17.916 13.9256 18.2076 13.8678L19.9193 13.5314C20.2417 13.971 20.6124 14.3715 21.0268 14.7279L20.5581 16.4089C20.4783 16.6954 20.6182 16.9977 20.8884 17.1222L22.9302 18.0626C23.2005 18.1871 23.521 18.097 23.6869 17.8499L24.66 16.4011C25.1985 16.4839 25.7446 16.5056 26.289 16.465L27.146 17.9848C27.256 18.18 27.4605 18.2933 27.6739 18.2933C27.744 18.2933 27.815 18.2811 27.8838 18.2556L29.9929 17.4767C30.2721 17.3736 30.435 17.0832 30.3776 16.7912L30.0411 15.0793C30.4807 14.7568 30.8812 14.386 31.2376 13.9718L32.9186 14.4405C33.2052 14.52 33.5074 14.3804 33.6319 14.1102L34.5723 12.0684C34.6967 11.7982 34.6068 11.4776 34.3597 11.3117ZM32.7469 13.1342L31.1805 12.6975C30.9418 12.6313 30.687 12.7164 30.5365 12.913C30.1184 13.4592 29.6148 13.9253 29.0399 14.2983C28.8321 14.4331 28.7273 14.6807 28.7751 14.9237L29.0887 16.5185L27.9482 16.9398L27.1499 15.5239C27.0415 15.3317 26.8387 15.2155 26.6221 15.2155C26.5956 15.2155 26.5689 15.2172 26.5421 15.2208C25.8668 15.3107 25.1727 15.2833 24.5044 15.1409C24.2624 15.0893 24.013 15.1902 23.8749 15.3958L22.9684 16.7456L21.8645 16.2372L22.3011 14.6709C22.3675 14.4323 22.2823 14.1773 22.0856 14.0268C21.5394 13.6087 21.0734 13.1052 20.7003 12.5303C20.5656 12.3226 20.3181 12.2178 20.075 12.2655L18.4803 12.5789L18.059 11.4385L19.4748 10.6401C19.6905 10.5185 19.8105 10.2779 19.7779 10.0325C19.6877 9.35275 19.7146 8.6672 19.8578 7.99483C19.9094 7.75259 19.8085 7.50341 19.603 7.36533L18.253 6.45883L18.7616 5.35484L20.3279 5.79154C20.5663 5.85775 20.8214 5.77268 20.9719 5.57602C21.3896 5.03015 21.8932 4.56409 22.4686 4.1907C22.6763 4.05593 22.7812 3.80834 22.7333 3.56535L22.4198 1.97067L23.5603 1.54942L24.3586 2.96517C24.4802 3.18087 24.7206 3.30102 24.9664 3.26829C25.6416 3.17867 26.3356 3.2059 27.0041 3.34827C27.246 3.39976 27.4954 3.2989 27.6335 3.09335L28.54 1.74328L29.6439 2.25178L29.2073 3.81828C29.1408 4.05688 29.2262 4.31192 29.4228 4.46234C29.9685 4.88002 30.4346 5.38346 30.8079 5.95874C30.9427 6.16651 31.1903 6.271 31.4331 6.22358L33.0281 5.91013L33.4494 7.05049L32.0335 7.84884C31.8178 7.97052 31.6978 8.21107 31.7304 8.45652C31.8207 9.13649 31.7938 9.82206 31.6504 10.4942C31.5987 10.7364 31.6997 10.9857 31.9053 11.1237L33.2553 12.0302L32.7469 13.1342Z" fill="#393F45"/>
<path d="M25.7536 4.13623C25.1504 4.13623 24.5553 4.24302 23.9848 4.45374C21.3431 5.42931 19.9877 8.37218 20.9633 11.014C21.7007 13.0109 23.6262 14.3527 25.7546 14.3529C25.7547 14.3529 25.7547 14.3529 25.7549 14.3529C26.358 14.3529 26.953 14.2461 27.5234 14.0354C30.165 13.0598 31.5206 10.1169 30.545 7.47531C29.8074 5.47809 27.8819 4.13623 25.7536 4.13623ZM27.1035 12.8983C26.6679 13.0592 26.2142 13.1407 25.7549 13.1407C25.7549 13.1407 25.7547 13.1407 25.7546 13.1407C24.1315 13.1406 22.6629 12.1172 22.1003 10.5941C21.3563 8.57925 22.39 6.33479 24.4048 5.59079C24.8403 5.42989 25.2941 5.34838 25.7536 5.34838C27.3768 5.34838 28.8453 6.37189 29.4079 7.89519C30.1519 9.90985 29.1181 12.1542 27.1035 12.8983Z" fill="#393F45"/>
</g>
<defs>
<clipPath id="clip0_25_139">
<rect width="35" height="35" fill="white"/>
</clipPath>
</defs>
</svg>
