<svg width="30" height="30" viewBox="0 0 30 30" fill="none" xmlns="http://www.w3.org/2000/svg">
<g clip-path="url(#clip0_31_2011)">
<path d="M29.5 14.9987C29.5 22.9953 22.9936 29.5 14.9988 29.5C12.0545 29.5 9.31386 28.6181 7.02262 27.1032L6.82265 26.971L6.59435 27.0441L1.77378 28.588L3.33125 23.9553L3.41343 23.7109L3.26189 23.5022C1.52604 21.1117 0.5 18.1752 0.5 15.0024C0.5 7.0056 7.00415 0.5 14.9988 0.5C22.9949 0.5 29.5023 7.00586 29.5 14.9987Z" stroke="#393F45"/>
<path d="M22.945 18.254C22.851 18.103 22.605 18.011 22.237 17.827C21.87 17.643 20.053 16.758 19.716 16.638C19.376 16.515 19.13 16.453 18.884 16.82C18.641 17.187 17.933 18.011 17.716 18.257C17.501 18.502 17.286 18.533 16.917 18.352C16.548 18.166 15.358 17.782 13.948 16.535C12.851 15.563 12.11 14.366 11.896 13.999C11.679 13.633 11.874 13.435 12.057 13.253C12.222 13.088 12.426 12.825 12.611 12.61C12.796 12.397 12.857 12.246 12.98 12.001C13.101 11.756 13.04 11.543 12.949 11.358C12.857 11.174 12.12 9.374 11.811 8.641C11.504 7.909 11.197 8.03 10.981 8.03C10.766 8.03 10.52 8 10.274 8C10.028 8 9.628 8.089 9.291 8.456C8.954 8.823 8 9.708 8 11.51C8 13.314 9.321 15.053 9.506 15.297C9.692 15.54 12.06 19.359 15.811 20.825C19.564 22.29 19.564 21.801 20.24 21.739C20.918 21.677 22.424 20.854 22.73 20C23.038 19.142 23.038 18.407 22.945 18.254Z" fill="#393F45"/>
</g>
<defs>
<clipPath id="clip0_31_2011">
<rect width="30" height="30" fill="white"/>
</clipPath>
</defs>
</svg>
