<svg width="30" height="30" viewBox="0 0 30 30" fill="none" xmlns="http://www.w3.org/2000/svg">
<g clip-path="url(#clip0_31_2025)">
<path d="M15 29.5C23.0081 29.5 29.5 23.0081 29.5 15C29.5 6.99187 23.0081 0.5 15 0.5C6.99187 0.5 0.5 6.99187 0.5 15C0.5 23.0081 6.99187 29.5 15 29.5Z" stroke="#393F45"/>
<path d="M22.9102 10.0366C22.2909 9.30032 21.1474 9 18.9635 9H11.0362C8.80239 9 7.63951 9.31969 7.02248 10.1035C6.4209 10.8678 6.4209 11.9939 6.4209 13.5524V16.5229C6.4209 19.5422 7.13468 21.0752 11.0362 21.0752H18.9636C20.8574 21.0752 21.9068 20.8102 22.5857 20.1605C23.282 19.4942 23.579 18.4063 23.579 16.5229V13.5524C23.579 11.9088 23.5325 10.7761 22.9102 10.0366ZM17.4365 15.4477L13.8367 17.3291C13.7562 17.3712 13.6682 17.392 13.5803 17.392C13.4808 17.392 13.3815 17.3653 13.2936 17.312C13.128 17.2117 13.0268 17.0322 13.0268 16.8386V13.0879C13.0268 12.8946 13.1277 12.7153 13.2929 12.6149C13.4583 12.5145 13.6639 12.5076 13.8354 12.5967L17.4352 14.466C17.6183 14.5611 17.7334 14.7501 17.7336 14.9564C17.7339 15.1629 17.6193 15.3522 17.4365 15.4477Z" fill="#393F45"/>
</g>
<defs>
<clipPath id="clip0_31_2025">
<rect width="30" height="30" fill="white"/>
</clipPath>
</defs>
</svg>
